<?xml version="1.0" encoding="utf-8"?>
<!-- Generator: Adobe Illustrator 16.0.0, SVG Export Plug-In . SVG Version: 6.00 Build 0)  -->
<!DOCTYPE svg PUBLIC "-//W3C//DTD SVG 1.1//EN" "http://www.w3.org/Graphics/SVG/1.1/DTD/svg11.dtd">
<svg version="1.1" xmlns="http://www.w3.org/2000/svg" xmlns:xlink="http://www.w3.org/1999/xlink" x="0px" y="0px" width="708px"
	 height="714px" viewBox="0 0 708 714" enable-background="new 0 0 708 714" xml:space="preserve">
<g id="Warstwa_2">
	<circle cx="356" cy="358" r="338"/>
</g>
<g id="Warstwa_3">
	<path fill="#FFFFFF" d="M479,221v-80h-86c0,0-78,1-96,80c3,85,0,92,0,92h-77v88h75l2,214.916h94L389,400l76,1l14-89l-89-1l-4-65
		c0,0,13-27,31-27"/>
	<path fill="#FFFFFF" d="M402.226,224.955c0,0-19.427,16.536-14.826,43.792s-37.899,0-37.899,0l-8.833-43.792l52.667-35.62
		L402.226,224.955z"/>
</g>
</svg>
