<?xml version="1.0" encoding="utf-8"?>
<!-- Generator: Adobe Illustrator 16.0.0, SVG Export Plug-In . SVG Version: 6.00 Build 0)  -->
<!DOCTYPE svg PUBLIC "-//W3C//DTD SVG 1.1//EN" "http://www.w3.org/Graphics/SVG/1.1/DTD/svg11.dtd">
<svg version="1.1" xmlns="http://www.w3.org/2000/svg" xmlns:xlink="http://www.w3.org/1999/xlink" x="0px" y="0px" width="708px"
	 height="714px" viewBox="0 0 708 714" enable-background="new 0 0 708 714" xml:space="preserve">
<g id="Warstwa_2">
	<circle cx="356" cy="358" r="338"/>
	<path fill="#FFFFFF" d="M549,420"/>
</g>
<g id="Warstwa_4">
	<path fill="#FFFFFF" stroke="#FFFFFF" d="M256.937,135h216.019c0,0,110.504,0,110.504,110.505c0,110.505,0,221.722,0,221.722
		s-14.972,111.217-119.772,105.515c-110.504,0.713-228.138,0.211-228.138,0.211s-106.939-19.463-94.82-133.175
		c0.713-164.33,2.852-207.818,2.852-207.818S135.738,143.555,256.937,135z"/>
	<path stroke="#FFFFFF" d="M276.824,173.39h177.585c0,0,90.844,0,90.844,90.844c0,90.844,0,182.273,0,182.273
		s-12.308,91.43-98.463,86.741c-90.844,0.587-187.548,0.175-187.548,0.175s-87.913-16-77.95-109.48
		c0.586-135.093,2.344-170.845,2.344-170.845S177.189,180.422,276.824,173.39z"/>
</g>
<g id="Warstwa_3">
	<circle fill="#FFFFFF" cx="479.612" cy="239.031" r="27.546"/>
	<circle fill="#FFFFFF" cx="362.979" cy="353.903" r="116.632"/>
	<ellipse cx="361.515" cy="353.905" rx="72.383" ry="70.037"/>
</g>
</svg>
