<?xml version="1.0" encoding="utf-8"?>
<!-- Generator: Adobe Illustrator 16.0.0, SVG Export Plug-In . SVG Version: 6.00 Build 0)  -->
<!DOCTYPE svg PUBLIC "-//W3C//DTD SVG 1.1//EN" "http://www.w3.org/Graphics/SVG/1.1/DTD/svg11.dtd">
<svg version="1.1" id="Warstwa_1" xmlns="http://www.w3.org/2000/svg" xmlns:xlink="http://www.w3.org/1999/xlink" x="0px" y="0px"
	 width="236.667px" height="170.666px" viewBox="0 0 236.667 170.666" enable-background="new 0 0 236.667 170.666"
	 xml:space="preserve">
<path fill="#078282" d="M80.833,155.666H160v-48.833c0,0-0.5-12.667-18.834-18c-18.332-5.333-42.333,0-42.333,0s-14.167,4-18,17.5"
	/>
<g>
	<g>
		<path fill="#078282" d="M74.777,75.693c-18.332-5.334-42.333,0-42.333,0s-14.167,4-18,17.5v49.332H74.5v-41.194
			c2.773-9.765,10.949-14.558,15.263-16.463C87.076,81.506,82.521,77.945,74.777,75.693z"/>
	</g>
</g>
<g>
	<g>
		<path fill="#078282" d="M207.484,75.693c0,0-24.002-5.334-42.334,0c-7.744,2.252-12.299,5.813-14.984,9.175
			c4.313,1.905,12.49,6.698,15.262,16.463v41.194h60.057V93.193C221.65,79.693,207.484,75.693,207.484,75.693z"/>
	</g>
</g>
<circle fill="#078282" cx="54.77" cy="34.995" r="22.995"/>
<circle fill="#078282" cx="120.945" cy="47.99" r="22.995"/>
<circle fill="#078282" cx="185.611" cy="34.996" r="22.994"/>
</svg>
