<?xml version="1.0" encoding="utf-8"?>
<!-- Generator: Adobe Illustrator 16.0.0, SVG Export Plug-In . SVG Version: 6.00 Build 0)  -->
<!DOCTYPE svg PUBLIC "-//W3C//DTD SVG 1.1//EN" "http://www.w3.org/Graphics/SVG/1.1/DTD/svg11.dtd">
<svg version="1.1" id="Warstwa_1" xmlns="http://www.w3.org/2000/svg" xmlns:xlink="http://www.w3.org/1999/xlink" x="0px" y="0px"
	 width="314.646px" height="156.207px" viewBox="0 0 314.646 156.207" enable-background="new 0 0 314.646 156.207"
	 xml:space="preserve">
<polygon fill="#FFFFFF" points="103.617,107.693 100.91,107.693 98.188,111.209 97.22,112.535 97.22,107.693 95.019,107.693 
	95.019,118.376 97.22,118.376 97.22,115.323 98.365,114.091 101.108,118.376 103.727,118.376 99.824,112.44 "/>
<g>
	<path fill="#FFFFFF" d="M110.927,108.189c-0.692-0.429-1.483-0.643-2.373-0.643c-0.89,0-1.682,0.214-2.374,0.643
		s-1.227,1.042-1.606,1.842c-0.379,0.799-0.569,1.724-0.569,2.777v0.526c0.005,1.027,0.199,1.937,0.58,2.727
		c0.382,0.789,0.919,1.396,1.614,1.821c0.694,0.427,1.485,0.639,2.369,0.639c0.895,0,1.689-0.216,2.381-0.646
		c0.692-0.431,1.223-1.042,1.596-1.834c0.371-0.792,0.557-1.713,0.557-2.766v-0.478c0-1.046-0.19-1.969-0.568-2.768
		C112.154,109.231,111.619,108.618,110.927,108.189 M110.872,113.313c-0.005,1.11-0.206,1.955-0.602,2.534s-0.963,0.869-1.702,0.869
		c-0.753,0-1.33-0.301-1.731-0.901c-0.401-0.603-0.601-1.448-0.601-2.539v-0.521c0.004-1.108,0.207-1.952,0.609-2.525
		c0.401-0.575,0.97-0.863,1.709-0.863c0.743,0,1.316,0.292,1.716,0.874c0.401,0.581,0.602,1.432,0.602,2.552V113.313z"/>
	<polygon fill="#FFFFFF" points="117.144,113.027 118.722,112.572 118.722,111.354 117.144,111.809 117.144,107.693 
		114.943,107.693 114.943,112.447 113.96,112.727 113.96,113.944 114.943,113.666 114.943,118.376 121.817,118.376 121.817,116.606 
		117.144,116.606 	"/>
	<path fill="#FFFFFF" d="M129.678,108.189c-0.692-0.429-1.483-0.643-2.373-0.643s-1.682,0.214-2.373,0.643
		c-0.692,0.429-1.228,1.042-1.607,1.842c-0.379,0.799-0.569,1.724-0.569,2.777v0.526c0.005,1.027,0.199,1.937,0.58,2.727
		c0.382,0.789,0.919,1.396,1.614,1.821c0.694,0.427,1.485,0.639,2.369,0.639c0.896,0,1.689-0.216,2.382-0.646
		c0.692-0.431,1.223-1.042,1.595-1.834c0.371-0.792,0.557-1.713,0.557-2.766v-0.478c0-1.046-0.189-1.969-0.568-2.768
		C130.906,109.231,130.371,108.618,129.678,108.189 M129.623,113.313c-0.005,1.11-0.205,1.955-0.602,2.534
		c-0.396,0.579-0.963,0.869-1.702,0.869c-0.753,0-1.33-0.301-1.731-0.901c-0.401-0.603-0.601-1.448-0.601-2.539v-0.521
		c0.005-1.108,0.208-1.952,0.609-2.525c0.401-0.575,0.97-0.863,1.709-0.863c0.743,0,1.316,0.292,1.716,0.874
		c0.402,0.581,0.602,1.432,0.602,2.552V113.313z"/>
	<polygon fill="#FFFFFF" points="143.685,114.736 139.393,107.693 137.193,107.693 137.193,118.376 139.393,118.376 
		139.393,111.348 143.678,118.376 145.878,118.376 145.878,107.693 143.685,107.693 	"/>
	<path fill="#FFFFFF" d="M151.007,107.693l-3.976,10.682h2.34l0.733-2.201h3.86l0.74,2.201h2.34l-3.998-10.682H151.007z
		 M150.699,114.393l1.328-4l1.342,4H150.699z"/>
	<path fill="#FFFFFF" d="M163.793,114.803c-0.02,1.302-0.648,1.951-1.886,1.951c-0.592,0-1.055-0.159-1.39-0.479
		c-0.335-0.321-0.503-0.831-0.503-1.531v-7.05h-2.2v7.116c0.015,1.155,0.389,2.061,1.122,2.722c0.733,0.66,1.724,0.99,2.971,0.99
		c1.267,0,2.266-0.34,2.997-1.02s1.097-1.604,1.097-2.772v-7.036h-2.208V114.803z"/>
	<polygon fill="#FFFFFF" points="176.404,107.693 173.697,107.693 170.976,111.209 170.007,112.535 170.007,107.693 
		167.807,107.693 167.807,118.376 170.007,118.376 170.007,115.323 171.151,114.091 173.896,118.376 176.514,118.376 
		172.611,112.44 	"/>
	<path fill="#FFFFFF" d="M183.714,108.189c-0.692-0.429-1.483-0.643-2.373-0.643c-0.891,0-1.682,0.214-2.374,0.643
		c-0.691,0.429-1.228,1.042-1.606,1.842c-0.378,0.799-0.568,1.724-0.568,2.777v0.526c0.005,1.027,0.198,1.937,0.579,2.727
		c0.383,0.789,0.92,1.396,1.614,1.821c0.694,0.427,1.484,0.639,2.37,0.639c0.895,0,1.688-0.216,2.381-0.646
		c0.691-0.431,1.223-1.042,1.596-1.834c0.371-0.792,0.557-1.713,0.557-2.766v-0.478c0-1.046-0.189-1.969-0.568-2.768
		C184.941,109.231,184.406,108.618,183.714,108.189 M183.658,113.313c-0.005,1.11-0.205,1.955-0.602,2.534
		c-0.396,0.579-0.963,0.869-1.701,0.869c-0.753,0-1.331-0.301-1.731-0.901c-0.401-0.603-0.602-1.448-0.602-2.539v-0.521
		c0.005-1.108,0.208-1.952,0.609-2.525c0.4-0.575,0.971-0.863,1.709-0.863c0.743,0,1.315,0.292,1.716,0.874
		c0.401,0.581,0.602,1.432,0.602,2.552V113.313z"/>
	<polygon fill="#FFFFFF" points="195.808,115.295 194.054,107.693 192.19,107.693 190.431,115.278 188.984,107.693 186.792,107.693 
		189.161,118.376 191.377,118.376 193.114,111.23 194.854,118.376 197.07,118.376 199.439,107.693 197.244,107.693 	"/>
	<polygon fill="#FFFFFF" points="202.828,113.746 207.055,113.746 207.055,112.021 202.828,112.021 202.828,109.477 
		207.773,109.477 207.773,107.693 200.627,107.693 200.627,118.375 207.787,118.375 207.787,116.606 202.828,116.606 	"/>
	<polygon fill="#FFFFFF" points="212.818,118.375 215.02,118.375 215.02,114.01 219.245,114.01 219.245,112.234 215.02,112.234 
		215.02,109.478 219.772,109.478 219.772,107.693 212.818,107.693 	"/>
	<rect x="221.189" y="107.693" fill="#FFFFFF" width="2.2" height="10.682"/>
	<polygon fill="#FFFFFF" points="233.031,108.956 233.031,107.693 225.02,107.693 225.02,109.478 230.294,109.478 225.013,117.083 
		225.013,118.375 233.148,118.375 233.148,116.606 227.764,116.606 	"/>
	<polygon fill="#FFFFFF" points="238.217,112.507 236.009,107.693 233.596,107.693 237.102,114.502 237.102,118.376 239.34,118.376 
		239.34,114.502 242.846,107.693 240.439,107.693 	"/>
	<polygon fill="#FFFFFF" points="252.418,107.693 249.711,107.693 246.989,111.209 246.021,112.535 246.021,107.693 243.82,107.693 
		243.82,118.376 246.021,118.376 246.021,115.323 247.166,114.091 249.909,118.376 252.528,118.376 248.626,112.44 	"/>
	<path fill="#FFFFFF" d="M259.729,108.189c-0.691-0.429-1.483-0.643-2.373-0.643s-1.682,0.214-2.373,0.643
		c-0.692,0.429-1.227,1.042-1.606,1.842c-0.379,0.799-0.568,1.724-0.568,2.777v0.526c0.004,1.027,0.197,1.937,0.579,2.727
		c0.381,0.789,0.92,1.396,1.613,1.821c0.695,0.427,1.486,0.639,2.371,0.639c0.895,0,1.688-0.216,2.38-0.646
		c0.693-0.431,1.224-1.042,1.596-1.834c0.371-0.792,0.557-1.713,0.557-2.766v-0.478c0-1.046-0.189-1.969-0.567-2.768
		C260.956,109.231,260.421,108.618,259.729,108.189 M259.674,113.313c-0.004,1.11-0.206,1.955-0.602,2.534
		c-0.396,0.579-0.963,0.869-1.701,0.869c-0.755,0-1.331-0.301-1.732-0.901c-0.4-0.603-0.602-1.448-0.602-2.539v-0.521
		c0.005-1.108,0.208-1.952,0.609-2.525c0.4-0.575,0.97-0.863,1.709-0.863c0.743,0,1.315,0.292,1.717,0.874
		c0.401,0.581,0.602,1.432,0.602,2.552V113.313z"/>
	<polygon fill="#FFFFFF" points="258.061,107.106 260.092,104.833 257.781,104.833 256.336,107.106 	"/>
	<polygon fill="#FFFFFF" points="271.822,115.295 270.069,107.693 268.206,107.693 266.445,115.278 265.001,107.693 
		262.807,107.693 265.176,118.376 267.392,118.376 269.13,111.23 270.869,118.376 273.085,118.376 275.454,107.693 273.261,107.693 
			"/>
	<polygon fill="#FFFFFF" points="108.831,93.376 108.831,57.72 129.14,93.376 142.775,56.196 142.863,56.196 142.863,55.957 
		150.153,36.089 142.863,36.089 139.186,36.089 129.102,36.089 129.102,71.732 108.831,36.089 95.019,36.089 95.019,93.376 	"/>
	<path fill="#FFFFFF" d="M238.324,82.749l0.025-0.075h18.924l3.349,10.702h14.832l-21.165-57.287h-12.993l-17.084,46.588h-4.622
		V36.089h-13.812v2.77c0.78,0.378,1.511,0.818,2.19,1.284c3.84,2.694,5.767,6.623,5.767,11.76c0,2.958-0.692,5.489-2.053,7.592
		c-1.334,2.077-3.311,3.601-5.904,4.595V38.859c-3.677-1.851-8.548-2.77-14.631-2.77h-0.792h-12.49h-7.303h-7.429l7.429,20.107
		l13.736,37.18h6.057h3.462c4.784-0.038,8.775-0.718,11.961-2.065V64.178c2.934,0.781,5.199,2.241,6.773,4.369
		c1.599,2.153,2.393,4.772,2.393,7.869c0,5.616-1.775,9.833-5.326,12.654c-1.108,0.881-2.393,1.636-3.84,2.24v2.065h13.812h0.705
		h14.743L238.324,82.749z M247.793,52.142l6.182,19.868h-12.326L247.793,52.142z M184.374,46.703h5.981h0.792
		c3.098,0,5.339,0.541,6.724,1.599c1.397,1.07,2.09,2.807,2.09,5.237c0,2.103-0.642,3.689-1.926,4.772s-3.438,1.637-6.459,1.662
		h-1.221h-5.981V46.703z M199.168,81.037c-1.335,1.146-3.248,1.712-5.741,1.712h-3.071h-5.981V69.013h5.981h3.701
		c4.746,0.025,7.126,2.43,7.126,7.202C201.183,78.292,200.516,79.891,199.168,81.037"/>
	<polygon fill="#FFFFFF" points="157.896,56.196 156.638,52.142 155.391,56.196 150.505,72.009 162.819,72.009 	"/>
	<path fill="#FFFFFF" d="M39.633,36.088L60.76,93.376h13.295l0.807-2.203L95.02,36.088H39.633z M76.989,75.61l-3.916,10.714
		L69.12,75.61L56.617,41.716h32.774l-6.472,17.703L76.989,75.61z"/>
	<polygon fill="#FFFFFF" points="143.896,93.376 169.467,93.376 166.118,82.674 147.194,82.674 	"/>
</g>
</svg>
