<?xml version="1.0" encoding="UTF-8" standalone="no"?>
<svg
   xmlns:dc="http://purl.org/dc/elements/1.1/"
   xmlns:cc="http://creativecommons.org/ns#"
   xmlns:rdf="http://www.w3.org/1999/02/22-rdf-syntax-ns#"
   xmlns:svg="http://www.w3.org/2000/svg"
   xmlns="http://www.w3.org/2000/svg"
   xmlns:sodipodi="http://sodipodi.sourceforge.net/DTD/sodipodi-0.dtd"
   xmlns:inkscape="http://www.inkscape.org/namespaces/inkscape"
   inkscape:version="1.0 (4035a4fb49, 2020-05-01)"
   sodipodi:docname="WPPT logo_biale.svg"
   id="svg12"
   xml:space="preserve"
   version="1.1"
   viewBox="0 0 108.6875 46.25"
   height="100"
   width="235"><metadata
     id="metadata18"><rdf:RDF><cc:Work
         rdf:about=""><dc:format>image/svg+xml</dc:format><dc:type
           rdf:resource="http://purl.org/dc/dcmitype/StillImage" /><dc:title /></cc:Work></rdf:RDF></metadata><defs
     id="defs16"><g
   id="g8207">
      <symbol
   overflow="visible"
   id="symbol3087">
        <path
   style="stroke:none"
   d=""
   id="path2044" />
      </symbol>
      <symbol
   overflow="visible"
   id="symbol1267">
        <path
   style="stroke:none"
   d="m 5.796875,-6.78125 h -5.46875 v 0.3125 H 0.5625 c 0.765625,0 0.796875,0.109375 0.796875,0.46875 v 5.21875 c 0,0.359375 -0.03125,0.46875 -0.796875,0.46875 H 0.328125 V 0 c 0.34375,-0.03125 1.125,-0.03125 1.515625,-0.03125 0.40625,0 1.3125,0 1.671875,0.03125 V -0.3125 H 3.1875 C 2.25,-0.3125 2.25,-0.4375 2.25,-0.78125 v -2.453125 h 0.84375 c 0.96875,0 1.0625,0.3125 1.0625,1.15625 h 0.25 V -4.71875 h -0.25 c 0,0.84375 -0.09375,1.171875 -1.0625,1.171875 H 2.25 v -2.53125 c 0,-0.328125 0.015625,-0.390625 0.484375,-0.390625 h 1.1875 c 1.5,0 1.75,0.5625 1.90625,1.9375 h 0.25 z m 0,0"
   id="path4797" />
      </symbol>
      <symbol
   overflow="visible"
   id="symbol8076">
        <path
   style="stroke:none"
   d="m 3.3125,-0.75 c 0.046875,0.390625 0.3125,0.8125 0.78125,0.8125 0.21875,0 0.828125,-0.140625 0.828125,-0.953125 v -0.5625 h -0.25 v 0.5625 c 0,0.578125 -0.25,0.640625 -0.359375,0.640625 -0.328125,0 -0.375,-0.453125 -0.375,-0.5 v -1.984375 c 0,-0.421875 0,-0.8125 -0.359375,-1.1875 C 3.1875,-4.3125 2.6875,-4.46875 2.21875,-4.46875 c -0.828125,0 -1.515625,0.46875 -1.515625,1.125 0,0.296875 0.203125,0.46875 0.46875,0.46875 0.28125,0 0.453125,-0.203125 0.453125,-0.453125 0,-0.125 -0.046875,-0.453125 -0.515625,-0.453125 C 1.390625,-4.140625 1.875,-4.25 2.1875,-4.25 c 0.5,0 1.0625,0.390625 1.0625,1.28125 v 0.359375 c -0.515625,0.03125 -1.203125,0.0625 -1.828125,0.359375 -0.75,0.34375 -1,0.859375 -1,1.296875 0,0.8125 0.96875,1.0625 1.59375,1.0625 0.65625,0 1.109375,-0.40625 1.296875,-0.859375 z M 3.25,-2.390625 v 1 c 0,0.9375 -0.71875,1.28125 -1.171875,1.28125 -0.484375,0 -0.890625,-0.34375 -0.890625,-0.84375 0,-0.546875 0.421875,-1.375 2.0625,-1.4375 z m 0,0"
   id="path6447" />
      </symbol>
      <symbol
   overflow="visible"
   id="symbol742">
        <path
   style="stroke:none"
   d="m 1.171875,-2.171875 c 0,-1.625 0.8125,-2.046875 1.34375,-2.046875 0.09375,0 0.71875,0.015625 1.0625,0.375 -0.40625,0.03125 -0.46875,0.328125 -0.46875,0.453125 0,0.265625 0.1875,0.453125 0.453125,0.453125 0.265625,0 0.46875,-0.15625 0.46875,-0.46875 0,-0.671875 -0.765625,-1.0625 -1.53125,-1.0625 -1.25,0 -2.15625,1.078125 -2.15625,2.3125 0,1.28125 0.984375,2.265625 2.140625,2.265625 1.328125,0 1.65625,-1.203125 1.65625,-1.296875 0,-0.09375 -0.109375,-0.09375 -0.140625,-0.09375 -0.078125,0 -0.109375,0.03125 -0.125,0.09375 -0.28125,0.921875 -0.9375,1.046875 -1.296875,1.046875 -0.53125,0 -1.40625,-0.421875 -1.40625,-2.03125 z m 0,0"
   id="path4077" />
      </symbol>
      <symbol
   overflow="visible"
   id="symbol4625">
        <path
   style="stroke:none"
   d="M 3.890625,-0.78125 V 0.109375 L 5.328125,0 V -0.3125 C 4.640625,-0.3125 4.5625,-0.375 4.5625,-0.875 v -3.53125 l -1.46875,0.109375 v 0.3125 c 0.6875,0 0.78125,0.0625 0.78125,0.5625 v 1.765625 c 0,0.875 -0.484375,1.546875 -1.21875,1.546875 -0.828125,0 -0.875,-0.46875 -0.875,-0.984375 v -3.3125 L 0.3125,-4.296875 v 0.3125 c 0.78125,0 0.78125,0.03125 0.78125,0.90625 v 1.5 c 0,0.78125 0,1.6875 1.515625,1.6875 0.5625,0 1,-0.28125 1.28125,-0.890625 z m 0,0"
   id="path2045" />
      </symbol>
      <symbol
   overflow="visible"
   id="symbol6693">
        <path
   style="stroke:none"
   d="M 1.765625,-6.921875 0.328125,-6.8125 V -6.5 c 0.703125,0 0.78125,0.0625 0.78125,0.5625 V -0.75 c 0,0.4375 -0.109375,0.4375 -0.78125,0.4375 V 0 C 0.65625,-0.015625 1.1875,-0.03125 1.4375,-0.03125 c 0.25,0 0.734375,0.015625 1.109375,0.03125 v -0.3125 c -0.671875,0 -0.78125,0 -0.78125,-0.4375 z m 0,0"
   id="path8050" />
      </symbol>
      <symbol
   overflow="visible"
   id="symbol8162">
        <path
   style="stroke:none"
   d="m 1.71875,-3.984375 h 1.4375 v -0.3125 H 1.71875 V -6.125 h -0.25 c 0,0.8125 -0.296875,1.875 -1.28125,1.921875 v 0.21875 h 0.84375 v 2.75 c 0,1.21875 0.9375,1.34375 1.296875,1.34375 0.703125,0 0.984375,-0.703125 0.984375,-1.34375 v -0.5625 h -0.25 V -1.25 c 0,0.734375 -0.296875,1.109375 -0.671875,1.109375 -0.671875,0 -0.671875,-0.90625 -0.671875,-1.078125 z m 0,0"
   id="path8548" />
      </symbol>
      <symbol
   overflow="visible"
   id="symbol7505">
        <path
   style="stroke:none"
   d="m 4.140625,-3.34375 c 0.25,-0.640625 0.765625,-0.640625 0.921875,-0.640625 v -0.3125 c -0.234375,0.015625 -0.515625,0.03125 -0.75,0.03125 -0.171875,0 -0.640625,-0.015625 -0.859375,-0.03125 v 0.3125 c 0.3125,0 0.46875,0.171875 0.46875,0.421875 0,0.109375 -0.015625,0.125 -0.0625,0.25 L 2.84375,-0.875 1.75,-3.546875 C 1.703125,-3.65625 1.6875,-3.6875 1.6875,-3.734375 c 0,-0.25 0.359375,-0.25 0.5625,-0.25 v -0.3125 c -0.265625,0.015625 -0.921875,0.03125 -1.09375,0.03125 -0.265625,0 -0.671875,-0.015625 -0.96875,-0.03125 v 0.3125 c 0.484375,0 0.671875,0 0.8125,0.34375 L 2.5,0 C 2.4375,0.125 2.296875,0.453125 2.25,0.59375 2.03125,1.140625 1.75,1.828125 1.109375,1.828125 c -0.046875,0 -0.28125,0 -0.46875,-0.1875 0.3125,-0.03125 0.390625,-0.25 0.390625,-0.421875 0,-0.25 -0.1875,-0.40625 -0.421875,-0.40625 -0.203125,0 -0.421875,0.125 -0.421875,0.421875 0,0.453125 0.421875,0.8125 0.921875,0.8125 0.625,0 1.03125,-0.578125 1.265625,-1.140625 z m 0,0"
   id="path3441" />
      </symbol>
      <symbol
   overflow="visible"
   id="symbol2093">
        <path
   style="stroke:none"
   d="M 4.6875,-2.140625 C 4.6875,-3.40625 3.703125,-4.46875 2.5,-4.46875 c -1.25,0 -2.21875,1.09375 -2.21875,2.328125 0,1.296875 1.03125,2.25 2.203125,2.25 1.203125,0 2.203125,-0.984375 2.203125,-2.25 z m -2.1875,2 c -0.4375,0 -0.875,-0.203125 -1.140625,-0.671875 -0.25,-0.4375 -0.25,-1.046875 -0.25,-1.40625 0,-0.390625 0,-0.921875 0.234375,-1.359375 C 1.609375,-4.03125 2.078125,-4.25 2.484375,-4.25 c 0.4375,0 0.859375,0.21875 1.125,0.65625 0.265625,0.421875 0.265625,1 0.265625,1.375 0,0.359375 0,0.90625 -0.21875,1.34375 C 3.421875,-0.421875 2.984375,-0.140625 2.5,-0.140625 Z m 0,0"
   id="path2202" />
      </symbol>
      <symbol
   overflow="visible"
   id="symbol316">
        <path
   style="stroke:none"
   d="m 1.75,-4.296875 v -1.15625 c 0,-0.875 0.46875,-1.359375 0.90625,-1.359375 0.03125,0 0.1875,0 0.328125,0.078125 C 2.875,-6.703125 2.6875,-6.5625 2.6875,-6.3125 c 0,0.21875 0.15625,0.421875 0.4375,0.421875 0.28125,0 0.4375,-0.203125 0.4375,-0.4375 0,-0.375 -0.375,-0.703125 -0.90625,-0.703125 -0.6875,0 -1.546875,0.53125 -1.546875,1.59375 v 1.140625 h -0.78125 v 0.3125 h 0.78125 V -0.75 C 1.109375,-0.3125 1,-0.3125 0.34375,-0.3125 V 0 c 0.390625,-0.015625 0.859375,-0.03125 1.125,-0.03125 0.40625,0 0.875,0 1.265625,0.03125 V -0.3125 H 2.53125 c -0.734375,0 -0.75,-0.109375 -0.75,-0.46875 v -3.203125 h 1.125 v -0.3125 z m 0,0"
   id="path1323" />
      </symbol>
    </g>
  <g
   id="g1380">
      <symbol
   overflow="visible"
   id="symbol536">
        <path
   style="stroke:none"
   d=""
   id="path7573" />
      </symbol>
      <symbol
   overflow="visible"
   id="symbol8795">
        <path
   style="stroke:none"
   d="m 5.796875,-6.78125 h -5.46875 v 0.3125 H 0.5625 c 0.765625,0 0.796875,0.109375 0.796875,0.46875 v 5.21875 c 0,0.359375 -0.03125,0.46875 -0.796875,0.46875 H 0.328125 V 0 c 0.34375,-0.03125 1.125,-0.03125 1.515625,-0.03125 0.40625,0 1.3125,0 1.671875,0.03125 V -0.3125 H 3.1875 C 2.25,-0.3125 2.25,-0.4375 2.25,-0.78125 v -2.453125 h 0.84375 c 0.96875,0 1.0625,0.3125 1.0625,1.15625 h 0.25 V -4.71875 h -0.25 c 0,0.84375 -0.09375,1.171875 -1.0625,1.171875 H 2.25 v -2.53125 c 0,-0.328125 0.015625,-0.390625 0.484375,-0.390625 h 1.1875 c 1.5,0 1.75,0.5625 1.90625,1.9375 h 0.25 z m 0,0"
   id="path8481" />
      </symbol>
      <symbol
   overflow="visible"
   id="symbol4685">
        <path
   style="stroke:none"
   d="M 3.890625,-0.78125 V 0.109375 L 5.328125,0 V -0.3125 C 4.640625,-0.3125 4.5625,-0.375 4.5625,-0.875 v -3.53125 l -1.46875,0.109375 v 0.3125 c 0.6875,0 0.78125,0.0625 0.78125,0.5625 v 1.765625 c 0,0.875 -0.484375,1.546875 -1.21875,1.546875 -0.828125,0 -0.875,-0.46875 -0.875,-0.984375 v -3.3125 L 0.3125,-4.296875 v 0.3125 c 0.78125,0 0.78125,0.03125 0.78125,0.90625 v 1.5 c 0,0.78125 0,1.6875 1.515625,1.6875 0.5625,0 1,-0.28125 1.28125,-0.890625 z m 0,0"
   id="path4758" />
      </symbol>
      <symbol
   overflow="visible"
   id="symbol2332">
        <path
   style="stroke:none"
   d="M 1.09375,-3.421875 V -0.75 c 0,0.4375 -0.109375,0.4375 -0.78125,0.4375 V 0 c 0.359375,-0.015625 0.859375,-0.03125 1.140625,-0.03125 0.25,0 0.765625,0.015625 1.109375,0.03125 v -0.3125 c -0.671875,0 -0.78125,0 -0.78125,-0.4375 V -2.59375 C 1.78125,-3.625 2.5,-4.1875 3.125,-4.1875 c 0.640625,0 0.75,0.53125 0.75,1.109375 V -0.75 c 0,0.4375 -0.109375,0.4375 -0.78125,0.4375 V 0 c 0.34375,-0.015625 0.859375,-0.03125 1.125,-0.03125 0.25,0 0.78125,0.015625 1.109375,0.03125 v -0.3125 c -0.515625,0 -0.765625,0 -0.765625,-0.296875 v -1.90625 c 0,-0.859375 0,-1.15625 -0.3125,-1.515625 -0.140625,-0.171875 -0.46875,-0.375 -1.046875,-0.375 C 2.46875,-4.40625 2,-3.984375 1.71875,-3.359375 V -4.40625 L 0.3125,-4.296875 v 0.3125 c 0.703125,0 0.78125,0.0625 0.78125,0.5625 z m 0,0"
   id="path3515" />
      </symbol>
      <symbol
   overflow="visible"
   id="symbol3176">
        <path
   style="stroke:none"
   d="m 3.78125,-0.546875 v 0.65625 L 5.25,0 v -0.3125 c -0.6875,0 -0.78125,-0.0625 -0.78125,-0.5625 V -6.921875 L 3.046875,-6.8125 V -6.5 c 0.6875,0 0.765625,0.0625 0.765625,0.5625 v 2.15625 c -0.28125,-0.359375 -0.71875,-0.625 -1.25,-0.625 -1.171875,0 -2.21875,0.984375 -2.21875,2.265625 0,1.265625 0.96875,2.25 2.109375,2.25 0.640625,0 1.078125,-0.34375 1.328125,-0.65625 z m 0,-2.671875 v 2.046875 c 0,0.171875 0,0.1875 -0.109375,0.359375 C 3.375,-0.328125 2.9375,-0.109375 2.5,-0.109375 2.046875,-0.109375 1.6875,-0.375 1.453125,-0.75 1.203125,-1.15625 1.171875,-1.71875 1.171875,-2.140625 1.171875,-2.5 1.1875,-3.09375 1.46875,-3.546875 1.6875,-3.859375 2.0625,-4.1875 2.609375,-4.1875 c 0.34375,0 0.765625,0.15625 1.0625,0.59375 0.109375,0.171875 0.109375,0.1875 0.109375,0.375 z m 0,0"
   id="path2976" />
      </symbol>
      <symbol
   overflow="visible"
   id="symbol9321">
        <path
   style="stroke:none"
   d="m 3.3125,-0.75 c 0.046875,0.390625 0.3125,0.8125 0.78125,0.8125 0.21875,0 0.828125,-0.140625 0.828125,-0.953125 v -0.5625 h -0.25 v 0.5625 c 0,0.578125 -0.25,0.640625 -0.359375,0.640625 -0.328125,0 -0.375,-0.453125 -0.375,-0.5 v -1.984375 c 0,-0.421875 0,-0.8125 -0.359375,-1.1875 C 3.1875,-4.3125 2.6875,-4.46875 2.21875,-4.46875 c -0.828125,0 -1.515625,0.46875 -1.515625,1.125 0,0.296875 0.203125,0.46875 0.46875,0.46875 0.28125,0 0.453125,-0.203125 0.453125,-0.453125 0,-0.125 -0.046875,-0.453125 -0.515625,-0.453125 C 1.390625,-4.140625 1.875,-4.25 2.1875,-4.25 c 0.5,0 1.0625,0.390625 1.0625,1.28125 v 0.359375 c -0.515625,0.03125 -1.203125,0.0625 -1.828125,0.359375 -0.75,0.34375 -1,0.859375 -1,1.296875 0,0.8125 0.96875,1.0625 1.59375,1.0625 0.65625,0 1.109375,-0.40625 1.296875,-0.859375 z M 3.25,-2.390625 v 1 c 0,0.9375 -0.71875,1.28125 -1.171875,1.28125 -0.484375,0 -0.890625,-0.34375 -0.890625,-0.84375 0,-0.546875 0.421875,-1.375 2.0625,-1.4375 z m 0,0"
   id="path5239" />
      </symbol>
      <symbol
   overflow="visible"
   id="symbol8356">
        <path
   style="stroke:none"
   d="M 1.09375,-3.421875 V -0.75 c 0,0.4375 -0.109375,0.4375 -0.78125,0.4375 V 0 c 0.359375,-0.015625 0.859375,-0.03125 1.140625,-0.03125 0.25,0 0.765625,0.015625 1.109375,0.03125 v -0.3125 c -0.671875,0 -0.78125,0 -0.78125,-0.4375 V -2.59375 C 1.78125,-3.625 2.5,-4.1875 3.125,-4.1875 c 0.640625,0 0.75,0.53125 0.75,1.109375 V -0.75 c 0,0.4375 -0.109375,0.4375 -0.78125,0.4375 V 0 c 0.34375,-0.015625 0.859375,-0.03125 1.125,-0.03125 0.25,0 0.78125,0.015625 1.109375,0.03125 v -0.3125 c -0.65625,0 -0.765625,0 -0.765625,-0.4375 v -1.84375 c 0,-1.03125 0.703125,-1.59375 1.34375,-1.59375 0.625,0 0.734375,0.53125 0.734375,1.109375 V -0.75 c 0,0.4375 -0.109375,0.4375 -0.78125,0.4375 V 0 c 0.34375,-0.015625 0.859375,-0.03125 1.125,-0.03125 0.265625,0 0.78125,0.015625 1.125,0.03125 v -0.3125 c -0.515625,0 -0.765625,0 -0.78125,-0.296875 v -1.90625 c 0,-0.859375 0,-1.15625 -0.3125,-1.515625 -0.140625,-0.171875 -0.46875,-0.375 -1.046875,-0.375 -0.828125,0 -1.28125,0.59375 -1.4375,0.984375 C 4.390625,-4.296875 3.65625,-4.40625 3.203125,-4.40625 2.46875,-4.40625 2,-3.984375 1.71875,-3.359375 V -4.40625 L 0.3125,-4.296875 v 0.3125 c 0.703125,0 0.78125,0.0625 0.78125,0.5625 z m 0,0"
   id="path2925" />
      </symbol>
      <symbol
   overflow="visible"
   id="symbol1466">
        <path
   style="stroke:none"
   d="M 1.109375,-2.515625 C 1.171875,-4 2.015625,-4.25 2.359375,-4.25 c 1.015625,0 1.125,1.34375 1.125,1.734375 z m 0,0.21875 h 2.78125 c 0.21875,0 0.25,0 0.25,-0.21875 0,-0.984375 -0.546875,-1.953125 -1.78125,-1.953125 -1.15625,0 -2.078125,1.03125 -2.078125,2.28125 0,1.328125 1.046875,2.296875 2.1875,2.296875 C 3.6875,0.109375 4.140625,-1 4.140625,-1.1875 4.140625,-1.28125 4.0625,-1.3125 4,-1.3125 c -0.078125,0 -0.109375,0.0625 -0.125,0.140625 -0.34375,1.03125 -1.25,1.03125 -1.34375,1.03125 -0.5,0 -0.890625,-0.296875 -1.125,-0.671875 -0.296875,-0.46875 -0.296875,-1.125 -0.296875,-1.484375 z m 0,0"
   id="path3878" />
      </symbol>
      <symbol
   overflow="visible"
   id="symbol1707">
        <path
   style="stroke:none"
   d="m 1.71875,-3.984375 h 1.4375 v -0.3125 H 1.71875 V -6.125 h -0.25 c 0,0.8125 -0.296875,1.875 -1.28125,1.921875 v 0.21875 h 0.84375 v 2.75 c 0,1.21875 0.9375,1.34375 1.296875,1.34375 0.703125,0 0.984375,-0.703125 0.984375,-1.34375 v -0.5625 h -0.25 V -1.25 c 0,0.734375 -0.296875,1.109375 -0.671875,1.109375 -0.671875,0 -0.671875,-0.90625 -0.671875,-1.078125 z m 0,0"
   id="path648" />
      </symbol>
      <symbol
   overflow="visible"
   id="symbol5315">
        <path
   style="stroke:none"
   d="M 1.765625,-6.921875 0.328125,-6.8125 V -6.5 c 0.703125,0 0.78125,0.0625 0.78125,0.5625 V -0.75 c 0,0.4375 -0.109375,0.4375 -0.78125,0.4375 V 0 C 0.65625,-0.015625 1.1875,-0.03125 1.4375,-0.03125 c 0.25,0 0.734375,0.015625 1.109375,0.03125 v -0.3125 c -0.671875,0 -0.78125,0 -0.78125,-0.4375 z m 0,0"
   id="path6599" />
      </symbol>
    </g>
  <g
   id="g1543">
      <symbol
   overflow="visible"
   id="symbol1038">
        <path
   style="stroke:none"
   d=""
   id="path7250" />
      </symbol>
      <symbol
   overflow="visible"
   id="symbol7575">
        <path
   style="stroke:none"
   d="m 2.265625,-3.15625 h 1.6875 c 1.1875,0 2.265625,-0.796875 2.265625,-1.796875 C 6.21875,-5.9375 5.234375,-6.8125 3.875,-6.8125 H 0.34375 V -6.5 h 0.25 c 0.765625,0 0.78125,0.109375 0.78125,0.46875 v 5.25 c 0,0.359375 -0.015625,0.46875 -0.78125,0.46875 h -0.25 V 0 c 0.359375,-0.03125 1.09375,-0.03125 1.46875,-0.03125 0.375,0 1.125,0 1.484375,0.03125 v -0.3125 h -0.25 c -0.765625,0 -0.78125,-0.109375 -0.78125,-0.46875 z m -0.03125,-0.25 v -2.6875 C 2.234375,-6.4375 2.25,-6.5 2.71875,-6.5 h 0.890625 c 1.578125,0 1.578125,1.0625 1.578125,1.546875 0,0.46875 0,1.546875 -1.578125,1.546875 z m 0,0"
   id="path8780" />
      </symbol>
      <symbol
   overflow="visible"
   id="symbol6511">
        <path
   style="stroke:none"
   d="M 1.671875,-3.3125 V -4.40625 L 0.28125,-4.296875 v 0.3125 c 0.703125,0 0.78125,0.0625 0.78125,0.5625 V -0.75 c 0,0.4375 -0.109375,0.4375 -0.78125,0.4375 V 0 c 0.390625,-0.015625 0.859375,-0.03125 1.140625,-0.03125 0.390625,0 0.859375,0 1.265625,0.03125 V -0.3125 H 2.46875 c -0.734375,0 -0.75,-0.109375 -0.75,-0.46875 V -2.3125 c 0,-0.984375 0.421875,-1.875 1.171875,-1.875 0.0625,0 0.09375,0 0.109375,0.015625 -0.03125,0 -0.234375,0.125 -0.234375,0.390625 0,0.265625 0.21875,0.421875 0.4375,0.421875 0.171875,0 0.421875,-0.125 0.421875,-0.4375 0,-0.3125 -0.3125,-0.609375 -0.734375,-0.609375 -0.734375,0 -1.09375,0.671875 -1.21875,1.09375 z m 0,0"
   id="path2304" />
      </symbol>
      <symbol
   overflow="visible"
   id="symbol1322">
        <path
   style="stroke:none"
   d="M 4.6875,-2.140625 C 4.6875,-3.40625 3.703125,-4.46875 2.5,-4.46875 c -1.25,0 -2.21875,1.09375 -2.21875,2.328125 0,1.296875 1.03125,2.25 2.203125,2.25 1.203125,0 2.203125,-0.984375 2.203125,-2.25 z m -2.1875,2 c -0.4375,0 -0.875,-0.203125 -1.140625,-0.671875 -0.25,-0.4375 -0.25,-1.046875 -0.25,-1.40625 0,-0.390625 0,-0.921875 0.234375,-1.359375 C 1.609375,-4.03125 2.078125,-4.25 2.484375,-4.25 c 0.4375,0 0.859375,0.21875 1.125,0.65625 0.265625,0.421875 0.265625,1 0.265625,1.375 0,0.359375 0,0.90625 -0.21875,1.34375 C 3.421875,-0.421875 2.984375,-0.140625 2.5,-0.140625 Z m 0,0"
   id="path3081" />
      </symbol>
      <symbol
   overflow="visible"
   id="symbol8544">
        <path
   style="stroke:none"
   d="m 1.71875,-3.765625 v -3.15625 L 0.28125,-6.8125 V -6.5 c 0.703125,0 0.78125,0.0625 0.78125,0.5625 V 0 h 0.25 c 0,-0.015625 0.078125,-0.15625 0.359375,-0.625 0.140625,0.234375 0.5625,0.734375 1.296875,0.734375 1.1875,0 2.21875,-0.984375 2.21875,-2.265625 0,-1.265625 -0.96875,-2.25 -2.109375,-2.25 -0.78125,0 -1.203125,0.46875 -1.359375,0.640625 z m 0.03125,2.625 V -3.1875 c 0,-0.1875 0,-0.203125 0.109375,-0.359375 C 2.25,-4.109375 2.796875,-4.1875 3.03125,-4.1875 c 0.453125,0 0.8125,0.265625 1.046875,0.640625 0.265625,0.40625 0.28125,0.96875 0.28125,1.390625 0,0.359375 -0.015625,0.953125 -0.296875,1.40625 -0.21875,0.3125 -0.59375,0.640625 -1.125,0.640625 -0.453125,0 -0.8125,-0.234375 -1.046875,-0.609375 C 1.75,-0.921875 1.75,-0.953125 1.75,-1.140625 Z m 0,0"
   id="path7787" />
      </symbol>
      <symbol
   overflow="visible"
   id="symbol6416">
        <path
   style="stroke:none"
   d="M 1.765625,-6.921875 0.328125,-6.8125 V -6.5 c 0.703125,0 0.78125,0.0625 0.78125,0.5625 V -0.75 c 0,0.4375 -0.109375,0.4375 -0.78125,0.4375 V 0 C 0.65625,-0.015625 1.1875,-0.03125 1.4375,-0.03125 c 0.25,0 0.734375,0.015625 1.109375,0.03125 v -0.3125 c -0.671875,0 -0.78125,0 -0.78125,-0.4375 z m 0,0"
   id="path3575" />
      </symbol>
      <symbol
   overflow="visible"
   id="symbol3369">
        <path
   style="stroke:none"
   d="M 1.109375,-2.515625 C 1.171875,-4 2.015625,-4.25 2.359375,-4.25 c 1.015625,0 1.125,1.34375 1.125,1.734375 z m 0,0.21875 h 2.78125 c 0.21875,0 0.25,0 0.25,-0.21875 0,-0.984375 -0.546875,-1.953125 -1.78125,-1.953125 -1.15625,0 -2.078125,1.03125 -2.078125,2.28125 0,1.328125 1.046875,2.296875 2.1875,2.296875 C 3.6875,0.109375 4.140625,-1 4.140625,-1.1875 4.140625,-1.28125 4.0625,-1.3125 4,-1.3125 c -0.078125,0 -0.109375,0.0625 -0.125,0.140625 -0.34375,1.03125 -1.25,1.03125 -1.34375,1.03125 -0.5,0 -0.890625,-0.296875 -1.125,-0.671875 -0.296875,-0.46875 -0.296875,-1.125 -0.296875,-1.484375 z m 0,0"
   id="path8759" />
      </symbol>
      <symbol
   overflow="visible"
   id="symbol5940">
        <path
   style="stroke:none"
   d="M 1.09375,-3.421875 V -0.75 c 0,0.4375 -0.109375,0.4375 -0.78125,0.4375 V 0 c 0.359375,-0.015625 0.859375,-0.03125 1.140625,-0.03125 0.25,0 0.765625,0.015625 1.109375,0.03125 v -0.3125 c -0.671875,0 -0.78125,0 -0.78125,-0.4375 V -2.59375 C 1.78125,-3.625 2.5,-4.1875 3.125,-4.1875 c 0.640625,0 0.75,0.53125 0.75,1.109375 V -0.75 c 0,0.4375 -0.109375,0.4375 -0.78125,0.4375 V 0 c 0.34375,-0.015625 0.859375,-0.03125 1.125,-0.03125 0.25,0 0.78125,0.015625 1.109375,0.03125 v -0.3125 c -0.65625,0 -0.765625,0 -0.765625,-0.4375 v -1.84375 c 0,-1.03125 0.703125,-1.59375 1.34375,-1.59375 0.625,0 0.734375,0.53125 0.734375,1.109375 V -0.75 c 0,0.4375 -0.109375,0.4375 -0.78125,0.4375 V 0 c 0.34375,-0.015625 0.859375,-0.03125 1.125,-0.03125 0.265625,0 0.78125,0.015625 1.125,0.03125 v -0.3125 c -0.515625,0 -0.765625,0 -0.78125,-0.296875 v -1.90625 c 0,-0.859375 0,-1.15625 -0.3125,-1.515625 -0.140625,-0.171875 -0.46875,-0.375 -1.046875,-0.375 -0.828125,0 -1.28125,0.59375 -1.4375,0.984375 C 4.390625,-4.296875 3.65625,-4.40625 3.203125,-4.40625 2.46875,-4.40625 2,-3.984375 1.71875,-3.359375 V -4.40625 L 0.3125,-4.296875 v 0.3125 c 0.703125,0 0.78125,0.0625 0.78125,0.5625 z m 0,0"
   id="path3059" />
      </symbol>
      <symbol
   overflow="visible"
   id="symbol3989">
        <path
   style="stroke:none"
   d="m 2.078125,-1.9375 c 0.21875,0.046875 1.03125,0.203125 1.03125,0.921875 0,0.5 -0.34375,0.90625 -1.125,0.90625 -0.84375,0 -1.203125,-0.5625 -1.390625,-1.421875 C 0.5625,-1.65625 0.5625,-1.6875 0.453125,-1.6875 c -0.125,0 -0.125,0.0625 -0.125,0.234375 V -0.125 c 0,0.171875 0,0.234375 0.109375,0.234375 0.046875,0 0.0625,-0.015625 0.25,-0.203125 0.015625,-0.015625 0.015625,-0.03125 0.203125,-0.21875 0.4375,0.40625 0.890625,0.421875 1.09375,0.421875 1.140625,0 1.609375,-0.671875 1.609375,-1.390625 0,-0.515625 -0.296875,-0.828125 -0.421875,-0.9375 C 2.84375,-2.546875 2.453125,-2.625 2.03125,-2.703125 1.46875,-2.8125 0.8125,-2.9375 0.8125,-3.515625 c 0,-0.359375 0.25,-0.765625 1.109375,-0.765625 1.09375,0 1.15625,0.90625 1.171875,1.203125 0,0.09375 0.09375,0.09375 0.109375,0.09375 0.140625,0 0.140625,-0.046875 0.140625,-0.234375 v -1.015625 c 0,-0.15625 0,-0.234375 -0.109375,-0.234375 -0.046875,0 -0.078125,0 -0.203125,0.125 -0.03125,0.03125 -0.125,0.125 -0.171875,0.15625 -0.375,-0.28125 -0.78125,-0.28125 -0.9375,-0.28125 -1.21875,0 -1.59375,0.671875 -1.59375,1.234375 0,0.34375 0.15625,0.625 0.421875,0.84375 0.328125,0.25 0.609375,0.3125 1.328125,0.453125 z m 0,0"
   id="path8103" />
      </symbol>
      <symbol
   overflow="visible"
   id="symbol6025">
        <path
   style="stroke:none"
   d="m 1.75,-4.296875 v -1.15625 c 0,-0.875 0.46875,-1.359375 0.90625,-1.359375 0.03125,0 0.1875,0 0.328125,0.078125 C 2.875,-6.703125 2.6875,-6.5625 2.6875,-6.3125 c 0,0.21875 0.15625,0.421875 0.4375,0.421875 0.28125,0 0.4375,-0.203125 0.4375,-0.4375 0,-0.375 -0.375,-0.703125 -0.90625,-0.703125 -0.6875,0 -1.546875,0.53125 -1.546875,1.59375 v 1.140625 h -0.78125 v 0.3125 h 0.78125 V -0.75 C 1.109375,-0.3125 1,-0.3125 0.34375,-0.3125 V 0 c 0.390625,-0.015625 0.859375,-0.03125 1.125,-0.03125 0.40625,0 0.875,0 1.265625,0.03125 V -0.3125 H 2.53125 c -0.734375,0 -0.75,-0.109375 -0.75,-0.46875 v -3.203125 h 1.125 v -0.3125 z m 0,0"
   id="path6345" />
      </symbol>
    </g>
  <g
   id="g4396">
      <symbol
   overflow="visible"
   id="symbol141">
        <path
   style="stroke:none"
   d=""
   id="path1462" />
      </symbol>
      <symbol
   overflow="visible"
   id="symbol29">
        <path
   style="stroke:none"
   d="m 6.640625,-6.75 h -6.09375 l -0.1875,2.25 h 0.25 C 0.75,-6.109375 0.890625,-6.4375 2.40625,-6.4375 c 0.171875,0 0.4375,0 0.53125,0.015625 0.21875,0.046875 0.21875,0.15625 0.21875,0.375 v 5.265625 c 0,0.328125 0,0.46875 -1.046875,0.46875 H 1.703125 V 0 C 2.109375,-0.03125 3.125,-0.03125 3.59375,-0.03125 c 0.453125,0 1.484375,0 1.890625,0.03125 v -0.3125 h -0.40625 c -1.046875,0 -1.046875,-0.140625 -1.046875,-0.46875 v -5.265625 c 0,-0.1875 0,-0.328125 0.1875,-0.375 0.109375,-0.015625 0.375,-0.015625 0.5625,-0.015625 1.515625,0 1.65625,0.328125 1.796875,1.9375 h 0.25 z m 0,0"
   id="path2170" />
      </symbol>
      <symbol
   overflow="visible"
   id="symbol9698">
        <path
   style="stroke:none"
   d="M 1.109375,-2.515625 C 1.171875,-4 2.015625,-4.25 2.359375,-4.25 c 1.015625,0 1.125,1.34375 1.125,1.734375 z m 0,0.21875 h 2.78125 c 0.21875,0 0.25,0 0.25,-0.21875 0,-0.984375 -0.546875,-1.953125 -1.78125,-1.953125 -1.15625,0 -2.078125,1.03125 -2.078125,2.28125 0,1.328125 1.046875,2.296875 2.1875,2.296875 C 3.6875,0.109375 4.140625,-1 4.140625,-1.1875 4.140625,-1.28125 4.0625,-1.3125 4,-1.3125 c -0.078125,0 -0.109375,0.0625 -0.125,0.140625 -0.34375,1.03125 -1.25,1.03125 -1.34375,1.03125 -0.5,0 -0.890625,-0.296875 -1.125,-0.671875 -0.296875,-0.46875 -0.296875,-1.125 -0.296875,-1.484375 z m 0,0"
   id="path3370" />
      </symbol>
      <symbol
   overflow="visible"
   id="symbol6725">
        <path
   style="stroke:none"
   d="m 1.171875,-2.171875 c 0,-1.625 0.8125,-2.046875 1.34375,-2.046875 0.09375,0 0.71875,0.015625 1.0625,0.375 -0.40625,0.03125 -0.46875,0.328125 -0.46875,0.453125 0,0.265625 0.1875,0.453125 0.453125,0.453125 0.265625,0 0.46875,-0.15625 0.46875,-0.46875 0,-0.671875 -0.765625,-1.0625 -1.53125,-1.0625 -1.25,0 -2.15625,1.078125 -2.15625,2.3125 0,1.28125 0.984375,2.265625 2.140625,2.265625 1.328125,0 1.65625,-1.203125 1.65625,-1.296875 0,-0.09375 -0.109375,-0.09375 -0.140625,-0.09375 -0.078125,0 -0.109375,0.03125 -0.125,0.09375 -0.28125,0.921875 -0.9375,1.046875 -1.296875,1.046875 -0.53125,0 -1.40625,-0.421875 -1.40625,-2.03125 z m 0,0"
   id="path3138" />
      </symbol>
      <symbol
   overflow="visible"
   id="symbol6592">
        <path
   style="stroke:none"
   d="m 1.09375,-0.75 c 0,0.4375 -0.109375,0.4375 -0.78125,0.4375 V 0 c 0.359375,-0.015625 0.859375,-0.03125 1.140625,-0.03125 0.25,0 0.765625,0.015625 1.109375,0.03125 v -0.3125 c -0.671875,0 -0.78125,0 -0.78125,-0.4375 V -2.59375 C 1.78125,-3.625 2.5,-4.1875 3.125,-4.1875 c 0.640625,0 0.75,0.53125 0.75,1.109375 V -0.75 c 0,0.4375 -0.109375,0.4375 -0.78125,0.4375 V 0 c 0.34375,-0.015625 0.859375,-0.03125 1.125,-0.03125 0.25,0 0.78125,0.015625 1.109375,0.03125 v -0.3125 c -0.515625,0 -0.765625,0 -0.765625,-0.296875 v -1.90625 c 0,-0.859375 0,-1.15625 -0.3125,-1.515625 -0.140625,-0.171875 -0.46875,-0.375 -1.046875,-0.375 -0.84375,0 -1.28125,0.59375 -1.453125,0.984375 v -3.5 L 0.3125,-6.8125 V -6.5 c 0.703125,0 0.78125,0.0625 0.78125,0.5625 z m 0,0"
   id="path3611" />
      </symbol>
      <symbol
   overflow="visible"
   id="symbol1015">
        <path
   style="stroke:none"
   d="M 1.09375,-3.421875 V -0.75 c 0,0.4375 -0.109375,0.4375 -0.78125,0.4375 V 0 c 0.359375,-0.015625 0.859375,-0.03125 1.140625,-0.03125 0.25,0 0.765625,0.015625 1.109375,0.03125 v -0.3125 c -0.671875,0 -0.78125,0 -0.78125,-0.4375 V -2.59375 C 1.78125,-3.625 2.5,-4.1875 3.125,-4.1875 c 0.640625,0 0.75,0.53125 0.75,1.109375 V -0.75 c 0,0.4375 -0.109375,0.4375 -0.78125,0.4375 V 0 c 0.34375,-0.015625 0.859375,-0.03125 1.125,-0.03125 0.25,0 0.78125,0.015625 1.109375,0.03125 v -0.3125 c -0.515625,0 -0.765625,0 -0.765625,-0.296875 v -1.90625 c 0,-0.859375 0,-1.15625 -0.3125,-1.515625 -0.140625,-0.171875 -0.46875,-0.375 -1.046875,-0.375 C 2.46875,-4.40625 2,-3.984375 1.71875,-3.359375 V -4.40625 L 0.3125,-4.296875 v 0.3125 c 0.703125,0 0.78125,0.0625 0.78125,0.5625 z m 0,0"
   id="path6838" />
      </symbol>
      <symbol
   overflow="visible"
   id="symbol8472">
        <path
   style="stroke:none"
   d="M 4.6875,-2.140625 C 4.6875,-3.40625 3.703125,-4.46875 2.5,-4.46875 c -1.25,0 -2.21875,1.09375 -2.21875,2.328125 0,1.296875 1.03125,2.25 2.203125,2.25 1.203125,0 2.203125,-0.984375 2.203125,-2.25 z m -2.1875,2 c -0.4375,0 -0.875,-0.203125 -1.140625,-0.671875 -0.25,-0.4375 -0.25,-1.046875 -0.25,-1.40625 0,-0.390625 0,-0.921875 0.234375,-1.359375 C 1.609375,-4.03125 2.078125,-4.25 2.484375,-4.25 c 0.4375,0 0.859375,0.21875 1.125,0.65625 0.265625,0.421875 0.265625,1 0.265625,1.375 0,0.359375 0,0.90625 -0.21875,1.34375 C 3.421875,-0.421875 2.984375,-0.140625 2.5,-0.140625 Z m 0,0"
   id="path4877" />
      </symbol>
      <symbol
   overflow="visible"
   id="symbol8123">
        <path
   style="stroke:none"
   d="M 1.765625,-6.921875 0.328125,-6.8125 V -6.5 c 0.703125,0 0.78125,0.0625 0.78125,0.5625 V -0.75 c 0,0.4375 -0.109375,0.4375 -0.78125,0.4375 V 0 C 0.65625,-0.015625 1.1875,-0.03125 1.4375,-0.03125 c 0.25,0 0.734375,0.015625 1.109375,0.03125 v -0.3125 c -0.671875,0 -0.78125,0 -0.78125,-0.4375 z m 0,0"
   id="path716" />
      </symbol>
      <symbol
   overflow="visible"
   id="symbol6160">
        <path
   style="stroke:none"
   d="m 2.21875,-1.71875 c -0.875,0 -0.875,-1 -0.875,-1.21875 0,-0.265625 0.015625,-0.59375 0.15625,-0.84375 0.078125,-0.109375 0.3125,-0.390625 0.71875,-0.390625 0.859375,0 0.859375,0.984375 0.859375,1.21875 0,0.265625 0,0.59375 -0.15625,0.84375 C 2.84375,-2 2.609375,-1.71875 2.21875,-1.71875 Z M 1.0625,-1.328125 c 0,-0.03125 0,-0.265625 0.15625,-0.46875 0.390625,0.28125 0.8125,0.3125 1,0.3125 0.921875,0 1.609375,-0.6875 1.609375,-1.453125 0,-0.375 -0.15625,-0.734375 -0.40625,-0.96875 C 3.78125,-4.25 4.140625,-4.296875 4.3125,-4.296875 c 0.03125,0 0.078125,0 0.109375,0.015625 C 4.3125,-4.25 4.25,-4.140625 4.25,-4.015625 c 0,0.171875 0.140625,0.28125 0.296875,0.28125 0.09375,0 0.28125,-0.0625 0.28125,-0.296875 0,-0.171875 -0.109375,-0.484375 -0.5,-0.484375 -0.203125,0 -0.640625,0.0625 -1.0625,0.46875 C 2.84375,-4.375 2.4375,-4.40625 2.21875,-4.40625 c -0.9375,0 -1.625,0.6875 -1.625,1.453125 0,0.4375 0.21875,0.8125 0.46875,1.03125 -0.125,0.140625 -0.3125,0.46875 -0.3125,0.828125 0,0.3125 0.140625,0.6875 0.453125,0.890625 -0.609375,0.15625 -0.921875,0.59375 -0.921875,0.984375 0,0.71875 0.984375,1.265625 2.203125,1.265625 1.171875,0 2.203125,-0.5 2.203125,-1.28125 0,-0.34375 -0.125,-0.859375 -0.640625,-1.140625 -0.53125,-0.265625 -1.109375,-0.265625 -1.71875,-0.265625 -0.25,0 -0.671875,0 -0.75,-0.015625 C 1.265625,-0.703125 1.0625,-1 1.0625,-1.328125 Z M 2.5,1.828125 c -1.015625,0 -1.703125,-0.515625 -1.703125,-1.046875 0,-0.453125 0.375,-0.828125 0.8125,-0.84375 h 0.59375 c 0.859375,0 1.96875,0 1.96875,0.84375 0,0.546875 -0.703125,1.046875 -1.671875,1.046875 z m 0,0"
   id="path2569" />
      </symbol>
      <symbol
   overflow="visible"
   id="symbol5114">
        <path
   style="stroke:none"
   d="m 4.140625,-3.34375 c 0.25,-0.640625 0.765625,-0.640625 0.921875,-0.640625 v -0.3125 c -0.234375,0.015625 -0.515625,0.03125 -0.75,0.03125 -0.171875,0 -0.640625,-0.015625 -0.859375,-0.03125 v 0.3125 c 0.3125,0 0.46875,0.171875 0.46875,0.421875 0,0.109375 -0.015625,0.125 -0.0625,0.25 L 2.84375,-0.875 1.75,-3.546875 C 1.703125,-3.65625 1.6875,-3.6875 1.6875,-3.734375 c 0,-0.25 0.359375,-0.25 0.5625,-0.25 v -0.3125 c -0.265625,0.015625 -0.921875,0.03125 -1.09375,0.03125 -0.265625,0 -0.671875,-0.015625 -0.96875,-0.03125 v 0.3125 c 0.484375,0 0.671875,0 0.8125,0.34375 L 2.5,0 C 2.4375,0.125 2.296875,0.453125 2.25,0.59375 2.03125,1.140625 1.75,1.828125 1.109375,1.828125 c -0.046875,0 -0.28125,0 -0.46875,-0.1875 0.3125,-0.03125 0.390625,-0.25 0.390625,-0.421875 0,-0.25 -0.1875,-0.40625 -0.421875,-0.40625 -0.203125,0 -0.421875,0.125 -0.421875,0.421875 0,0.453125 0.421875,0.8125 0.921875,0.8125 0.625,0 1.03125,-0.578125 1.265625,-1.140625 z m 0,0"
   id="path8136" />
      </symbol>
    </g>
  </defs><sodipodi:namedview
     inkscape:current-layer="svg12"
     inkscape:window-maximized="1"
     inkscape:window-y="-8"
     inkscape:window-x="1432"
     inkscape:cy="0.28350128"
     inkscape:cx="51.259661"
     inkscape:zoom="2.0875"
     showgrid="false"
     id="namedview14"
     inkscape:window-height="1017"
     inkscape:window-width="1920"
     inkscape:pageshadow="2"
     inkscape:pageopacity="0"
     guidetolerance="10"
     gridtolerance="10"
     objecttolerance="10"
     borderopacity="1"
     bordercolor="#666666"
     pagecolor="#ffffff"
     inkscape:document-rotation="0" /><path
     id="path10"
     d="m 97.6271,28.645519 c -1.750531,4.650876 -5.798495,8.174999 -10.760161,9.188637 -0.811569,0.202069 -1.622041,0.300907 -2.506091,0.288827 -0.143865,0.0033 -0.288827,0.0066 -0.432691,0.0066 -0.206462,0 -0.411825,-0.0044 -0.614992,-0.01318 l 2.557707,-2.631296 -4.517993,-5.116512 h 4.946291 c 2.224953,0 2.607126,1.328821 2.831159,2.082186 h 0.428298 L 89.333496,29.454893 H 77.689284 l 6.047786,6.862649 -1.651692,1.694522 c -5.456954,-0.685276 -9.979341,-4.378522 -11.856164,-9.367643 2.174435,-0.557885 3.811851,-2.456673 3.977679,-4.762892 h 4.421352 c 0.196578,2.755383 2.494012,4.929818 5.30101,4.929818 2.803704,0 5.102236,-2.174435 5.298814,-4.929818 h 4.42245 c 0.163631,2.307318 1.801047,4.206105 3.976581,4.76399 m 0,-10.293425 c -2.174436,0.557885 -3.81295,2.456672 -3.976581,4.761794 h -4.42245 c -0.187793,-2.62909 -2.28755,-4.72775 -4.915542,-4.91664 v -4.421352 c 2.306219,-0.16473 4.205006,-1.801048 4.762892,-3.9754831 3.937046,1.4825691 7.069111,4.6124381 8.551681,8.5516811 M 83.542689,18.198346 c -2.62909,0.187792 -4.72775,2.28755 -4.915542,4.91664 h -4.421352 c -0.165828,-2.305121 -1.802146,-4.205007 -3.977679,-4.761794 1.482569,-3.939242 4.613537,-7.07021 8.552779,-8.5516809 0.556787,2.1733369 2.456673,3.8107529 4.761794,3.9754829 z m 20.721931,5.30101 c 0,-2.93439 -2.37979,-5.314189 -5.31419,-5.314189 -0.181203,0 -0.362406,0.0099 -0.539216,0.02745 -1.556149,-4.258818 -4.938604,-7.640175 -9.197422,-9.1974218 0.01867,-0.1779084 0.02636,-0.3569145 0.02636,-0.5403138 0,-2.9343896 -2.378701,-5.3130901 -5.311992,-5.3130901 -2.935488,0 -5.314188,2.3797987 -5.314188,5.3130901 0,0.1833993 0.0099,0.3624054 0.02746,0.5403138 -4.257721,1.5561488 -7.641274,4.9375058 -9.196325,9.1974218 -0.177908,-0.01867 -0.358013,-0.02745 -0.540314,-0.02745 -2.934389,0 -5.314188,2.379799 -5.314188,5.314189 0,2.934389 2.379799,5.314188 5.314188,5.314188 0.182301,0 0.362406,-0.0088 0.540314,-0.02745 1.87902,5.14836 6.426665,9.011826 11.965984,9.922234 l -3.991956,4.097383 h 12.29764 l 0.832436,-4.065535 h -0.449172 c -0.673196,1.924046 -1.50673,2.200792 -2.94647,2.200792 h -6.587001 l 2.028374,-2.085481 c 0.405236,0.03514 0.815963,0.05491 1.229984,0.0582 1.149815,0.01208 2.161257,-0.08456 3.241886,-0.319576 5.257081,-1.087217 9.534569,-4.854042 11.344402,-9.808021 0.17681,0.01977 0.358013,0.02745 0.539216,0.02745 2.9344,0 5.31419,-2.379799 5.31419,-5.314188"
     fill="#089c9c"
     style="stroke-width:1.0982" /><g
     style="font-style:normal;font-variant:normal;font-weight:normal;font-stretch:normal;font-size:8.90666px;line-height:1.25;font-family:Aleo;-inkscape-font-specification:'Aleo, Normal';font-variant-ligatures:normal;font-variant-caps:normal;font-variant-numeric:normal;font-variant-east-asian:normal;fill:#ffffff;fill-opacity:1;stroke:none;stroke-width:0.222667"
     id="text135"
     aria-label="Faculty of
Fundamental
Problems of
Technology"><path
       id="path96"
       style="font-style:normal;font-variant:normal;font-weight:normal;font-stretch:normal;font-size:8.90666px;font-family:Aleo;-inkscape-font-specification:'Aleo, Normal';font-variant-ligatures:normal;font-variant-caps:normal;font-variant-numeric:normal;font-variant-east-asian:normal;text-align:end;text-anchor:end;fill:#ffffff;stroke-width:0.222667"
       d="m 23.444851,3.8239323 h -0.436427 q -0.151413,0 -0.178133,-0.1514132 0,-0.02672 -0.02672,-0.2048532 -0.01781,-0.1870398 -0.04453,-0.4809596 H 20.229546 V 5.222278 h 2.422612 v 0.6947195 h -2.422612 v 2.1019717 l 0.498773,0.097973 q 0.142507,0.02672 0.142507,0.1692265 V 8.6602488 H 18.715414 V 8.286169 q 0,-0.1425065 0.1336,-0.1692265 l 0.50768,-0.097973 V 2.9332663 q -0.42752,-0.08016 -0.50768,-0.1068799 -0.1336,-0.02672 -0.1336,-0.1692265 V 2.2830801 h 4.729437 z" /><path
       id="path98"
       style="font-style:normal;font-variant:normal;font-weight:normal;font-stretch:normal;font-size:8.90666px;font-family:Aleo;-inkscape-font-specification:'Aleo, Normal';font-variant-ligatures:normal;font-variant-caps:normal;font-variant-numeric:normal;font-variant-east-asian:normal;text-align:end;text-anchor:end;fill:#ffffff;stroke-width:0.222667"
       d="m 27.817881,8.0902225 q 0.06235,0.00891 0.09797,0.062347 0.03563,0.044533 0.03563,0.10688 v 0.3829863 h -0.926292 q -0.08016,0 -0.18704,-0.035627 -0.06235,-0.017813 -0.08907,-0.1425066 l -0.08907,-0.4275196 -0.356267,0.2939197 q -0.151413,0.1246933 -0.356266,0.2137599 -0.195947,0.089067 -0.391893,0.1335999 -0.178134,0.044533 -0.48096,0.044533 -0.249386,0 -0.48096,-0.08016 -0.276106,-0.097973 -0.400799,-0.2137598 -0.16032,-0.1425066 -0.2672,-0.3740797 -0.09797,-0.2048532 -0.09797,-0.5343996 0,-0.2850132 0.142506,-0.5165863 0.16032,-0.2582932 0.48096,-0.445333 0.356266,-0.2048532 0.855039,-0.3206398 0.516586,-0.1157866 1.300373,-0.1157866 V 5.7744909 q 0,-0.525493 -0.231574,-0.8015994 -0.231573,-0.2761065 -0.667999,-0.2761065 -0.285013,0 -0.489866,0.08016 -0.231574,0.089067 -0.338453,0.1603198 -0.05344,0.035627 -0.124694,0.08016 -0.06235,0.035627 -0.1336,0.08016 -0.09797,0.071253 -0.204853,0.071253 -0.09797,0 -0.142506,-0.035627 -0.05344,-0.044533 -0.08907,-0.10688 L 24.041457,4.776945 q 0.34736,-0.3384531 0.8016,-0.5343996 0.409706,-0.1781332 0.961919,-0.1781332 0.4008,0 0.676906,0.1246932 0.302827,0.1335999 0.489867,0.3384531 0.195946,0.2048532 0.302826,0.5343996 0.09797,0.2939198 0.09797,0.6947195 v 2.253385 q 0.42752,0.089067 0.445333,0.097973 z M 26.588762,6.6295303 q -0.578933,0 -0.926292,0.062347 -0.338453,0.062347 -0.623467,0.1870398 -0.249386,0.1157866 -0.356266,0.2671998 -0.10688,0.1603199 -0.10688,0.3384531 0,0.1425066 0.06235,0.3028265 0.05344,0.1335999 0.16032,0.2137598 0.10688,0.08016 0.231573,0.1157866 0.151413,0.044533 0.29392,0.044533 0.178133,0 0.374079,-0.044533 0.178133,-0.044533 0.329547,-0.1157866 0.1336,-0.062347 0.293919,-0.1959465 0.08907,-0.071253 0.2672,-0.2493865 z" /><path
       id="path100"
       style="font-style:normal;font-variant:normal;font-weight:normal;font-stretch:normal;font-size:8.90666px;font-family:Aleo;-inkscape-font-specification:'Aleo, Normal';font-variant-ligatures:normal;font-variant-caps:normal;font-variant-numeric:normal;font-variant-east-asian:normal;text-align:end;text-anchor:end;fill:#ffffff;stroke-width:0.222667"
       d="m 32.036716,8.0278759 q -0.56112,0.6947195 -1.674452,0.6947195 -0.85504,0 -1.407253,-0.6145596 -0.578932,-0.6501862 -0.578932,-1.7100787 0,-1.0331726 0.543306,-1.6655454 0.570026,-0.6501862 1.585385,-0.6501862 0.50768,0 1.335999,0.3206397 v 1.1756792 h -0.356266 q -0.124693,0 -0.151413,-0.1246933 -0.0089,-0.02672 -0.03563,-0.3384531 l -0.02672,-0.2939197 q -0.09797,-0.035627 -0.195946,-0.05344 -0.08907,-0.017813 -0.124694,-0.02672 -0.240479,-0.035627 -0.498773,-0.035627 -0.231573,0 -0.489866,0.1157866 -0.24048,0.1068799 -0.418613,0.3295464 -0.338453,0.445333 -0.338453,1.2469324 0,0.8015994 0.356266,1.2647457 0.34736,0.445333 0.953013,0.445333 0.56112,0 0.988639,-0.3740797 0.07125,-0.071253 0.178133,-0.071253 0.09797,0 0.142507,0.071253 z" /><path
       id="path102"
       style="font-style:normal;font-variant:normal;font-weight:normal;font-stretch:normal;font-size:8.90666px;font-family:Aleo;-inkscape-font-specification:'Aleo, Normal';font-variant-ligatures:normal;font-variant-caps:normal;font-variant-numeric:normal;font-variant-east-asian:normal;text-align:end;text-anchor:end;fill:#ffffff;stroke-width:0.222667"
       d="m 34.736547,8.1080358 q 0.668,0 1.220213,-0.6234662 v -2.671998 q -0.08016,-0.02672 -0.50768,-0.1068799 -0.1336,-0.02672 -0.1336,-0.1692266 V 4.1534788 h 1.433973 v 3.8654904 q 0.427519,0.08016 0.507679,0.10688 0.1336,0.02672 0.1336,0.1603198 V 8.6691554 H 36.2774 q -0.16032,0 -0.21376,-0.1692265 l -0.06235,-0.4809597 q -0.641279,0.7214395 -1.496319,0.7214395 -0.721439,0 -1.122239,-0.472053 Q 32.990842,7.7963027 32.990842,7.03033 V 4.8036649 Q 32.581136,4.723505 32.492069,4.696785 32.349562,4.670065 32.349562,4.5275585 V 4.1534788 h 1.442879 v 2.8679445 q 0,0.5343996 0.231574,0.8015994 0.240479,0.2761065 0.712532,0.2761065 z" /><path
       id="path104"
       style="font-style:normal;font-variant:normal;font-weight:normal;font-stretch:normal;font-size:8.90666px;font-family:Aleo;-inkscape-font-specification:'Aleo, Normal';font-variant-ligatures:normal;font-variant-caps:normal;font-variant-numeric:normal;font-variant-east-asian:normal;text-align:end;text-anchor:end;fill:#ffffff;stroke-width:0.222667"
       d="m 39.844239,8.1080358 q 0.142507,0.02672 0.142507,0.1692266 V 8.6602488 H 37.902587 V 8.2772624 q 0,-0.1425066 0.142507,-0.1692266 l 0.498773,-0.097973 V 2.7462265 q -0.409707,-0.08016 -0.498773,-0.10688 -0.142507,-0.02672 -0.142507,-0.1603198 V 2.0960403 h 1.442879 v 5.9051156 q 0.409707,0.08016 0.498773,0.1068799 z" /><path
       id="path106"
       style="font-style:normal;font-variant:normal;font-weight:normal;font-stretch:normal;font-size:8.90666px;font-family:Aleo;-inkscape-font-specification:'Aleo, Normal';font-variant-ligatures:normal;font-variant-caps:normal;font-variant-numeric:normal;font-variant-east-asian:normal;text-align:end;text-anchor:end;fill:#ffffff;stroke-width:0.222667"
       d="m 42.124901,8.731502 q -0.516587,0 -0.819413,-0.3028264 Q 41.020475,8.1436625 41.020475,7.5736362 V 4.8125716 h -0.543307 q -0.08016,0 -0.124693,-0.035627 -0.04453,-0.035627 -0.04453,-0.1335999 V 4.331612 l 0.739253,-0.097973 0.178133,-1.3983456 q 0,-0.071253 0.05344,-0.10688 0.04453,-0.035627 0.124693,-0.035627 h 0.4008 v 1.5497589 h 1.291465 v 0.5789329 h -1.291465 v 2.7076246 q 0,0.2939198 0.1336,0.4275197 0.1336,0.1335999 0.365173,0.1335999 0.09797,0 0.222666,-0.035627 0.08016,-0.02672 0.16032,-0.071253 0.02672,-0.017813 0.05344,-0.035627 0.02672,-0.017813 0.05344,-0.035627 0.07125,-0.035627 0.08907,-0.035627 0.06235,0 0.10688,0.071253 L 43.22042,8.3217957 Q 42.97994,8.5266489 42.721647,8.6246221 42.427727,8.731502 42.124901,8.731502 Z" /><path
       id="path108"
       style="font-style:normal;font-variant:normal;font-weight:normal;font-stretch:normal;font-size:8.90666px;font-family:Aleo;-inkscape-font-specification:'Aleo, Normal';font-variant-ligatures:normal;font-variant-caps:normal;font-variant-numeric:normal;font-variant-east-asian:normal;text-align:end;text-anchor:end;fill:#ffffff;stroke-width:0.222667"
       d="m 48.558014,4.5275585 q 0,0.1335999 -0.1336,0.1603199 -0.03563,0 -0.10688,0.017813 -0.06235,0.017813 -0.1336,0.035627 l -0.222666,0.044533 -2.235572,5.2014895 q -0.03563,0.089067 -0.115787,0.1425069 -0.07125,0.05344 -0.169226,0.05344 h -0.58784 L 45.672256,8.393049 44.086871,4.776945 q -0.2672,-0.044533 -0.4008,-0.089067 -0.1336,-0.02672 -0.1336,-0.1603199 V 4.1445721 h 2.021812 v 0.3829864 q 0,0.1335999 -0.1336,0.1603199 -0.08907,0.02672 -0.498773,0.1068799 l 1.006453,2.3513582 q 0.04453,0.097973 0.07125,0.2315732 0.03563,0.1335999 0.04453,0.1781332 0.06235,-0.2137598 0.142507,-0.4097064 l 0.970826,-2.3513582 q 0,0 -0.489867,-0.097973 -0.124693,-0.02672 -0.124693,-0.1692265 V 4.1534788 h 1.674452 l 0.32064,-0.00891 z" /><path
       id="path110"
       style="font-style:normal;font-variant:normal;font-weight:normal;font-stretch:normal;font-size:8.90666px;font-family:Aleo;-inkscape-font-specification:'Aleo, Normal';font-variant-ligatures:normal;font-variant-caps:normal;font-variant-numeric:normal;font-variant-east-asian:normal;text-align:end;text-anchor:end;fill:#ffffff;stroke-width:0.222667"
       d="m 52.998401,4.0822255 q 0.489866,0 0.890666,0.1603199 0.391893,0.1603198 0.685813,0.4631463 0.276106,0.2850131 0.427519,0.7303461 0.151414,0.4364264 0.151414,0.9619193 0,0.5254929 -0.151414,0.9619193 -0.151413,0.445333 -0.427519,0.7303461 -0.29392,0.3028265 -0.685813,0.4631463 -0.4008,0.1603199 -0.890666,0.1603199 -0.489866,0 -0.890666,-0.1603199 Q 51.715842,8.393049 51.421922,8.0902225 51.154722,7.814116 50.985496,7.3598764 50.842989,6.97689 50.842989,6.3979571 q 0,-0.5789329 0.142507,-0.9619193 0.169226,-0.4542397 0.436426,-0.7303461 0.29392,-0.3028265 0.685813,-0.4631463 0.4008,-0.1603199 0.890666,-0.1603199 z m 0,4.0258103 q 0.685813,0 0.997546,-0.445333 0.329546,-0.4631463 0.329546,-1.255839 0,-0.7926928 -0.329546,-1.2558391 -0.311733,-0.445333 -0.997546,-0.445333 -0.34736,0 -0.58784,0.1068799 -0.231573,0.1068799 -0.409706,0.3384531 -0.169227,0.2315731 -0.249386,0.5343996 -0.08907,0.3562664 -0.08907,0.7303461 0,0.3562664 0.08907,0.7125328 0.08016,0.3028265 0.249386,0.5343996 0.151413,0.2048532 0.409706,0.3206398 0.285014,0.1246932 0.58784,0.1246932 z" /><path
       id="path112"
       style="font-style:normal;font-variant:normal;font-weight:normal;font-stretch:normal;font-size:8.90666px;font-family:Aleo;-inkscape-font-specification:'Aleo, Normal';font-variant-ligatures:normal;font-variant-caps:normal;font-variant-numeric:normal;font-variant-east-asian:normal;text-align:end;text-anchor:end;fill:#ffffff;stroke-width:0.222667"
       d="m 57.9981,2.7996664 q -0.908479,0 -0.908479,1.0242659 v 0.4186131 h 1.300372 v 0.5700262 h -1.282559 v 3.197491 q 0.42752,0.062347 0.596746,0.097973 0.1336,0.02672 0.1336,0.1692266 V 8.6602488 H 55.628929 V 8.2772624 q 0,-0.1425066 0.133599,-0.1692266 l 0.552213,-0.097973 V 4.8303849 L 55.815968,4.7680383 Q 55.602209,4.7145983 55.602209,4.5631851 V 4.2425454 h 0.712532 V 3.806119 q 0,-0.7837861 0.418613,-1.2023991 0.409707,-0.418613 1.131146,-0.418613 0.2672,0 0.56112,0.089067 l -0.01781,0.4007997 q 0,0.08016 -0.08016,0.1068799 -0.05344,0.017813 -0.204854,0.017813 z" /><path
       id="path114"
       style="font-style:normal;font-variant:normal;font-weight:normal;font-stretch:normal;font-size:8.90666px;font-family:Aleo;-inkscape-font-specification:'Aleo, Normal';font-variant-ligatures:normal;font-variant-caps:normal;font-variant-numeric:normal;font-variant-east-asian:normal;text-align:end;text-anchor:end;fill:#ffffff;stroke-width:0.222667"
       d="M 9.9109022,14.957257 H 9.4744759 q -0.1514133,0 -0.1781332,-0.151413 0,-0.02672 -0.02672,-0.204853 -0.017813,-0.18704 -0.044533,-0.48096 H 6.6955979 v 2.235572 h 2.4226116 v 0.69472 H 6.6955979 v 2.101971 l 0.498773,0.09797 q 0.1425065,0.02672 0.1425065,0.169226 v 0.37408 H 5.1814657 v -0.37408 q 0,-0.142506 0.1335999,-0.169226 l 0.5076796,-0.09797 V 14.066591 Q 5.3952255,13.986431 5.3150656,13.959712 5.1814657,13.932992 5.1814657,13.790485 v -0.37408 h 4.7294365 z" /><path
       id="path116"
       style="font-style:normal;font-variant:normal;font-weight:normal;font-stretch:normal;font-size:8.90666px;font-family:Aleo;-inkscape-font-specification:'Aleo, Normal';font-variant-ligatures:normal;font-variant-caps:normal;font-variant-numeric:normal;font-variant-east-asian:normal;text-align:end;text-anchor:end;fill:#ffffff;stroke-width:0.222667"
       d="m 12.33073,19.241361 q 0.668,0 1.220213,-0.623466 v -2.671998 q -0.08016,-0.02672 -0.50768,-0.10688 -0.1336,-0.02672 -0.1336,-0.169227 v -0.382986 h 1.433973 v 3.86549 q 0.427519,0.08016 0.507679,0.10688 0.1336,0.02672 0.1336,0.16032 v 0.382987 h -1.113332 q -0.16032,0 -0.21376,-0.169227 l -0.06235,-0.48096 q -0.641279,0.72144 -1.496319,0.72144 -0.721439,0 -1.122239,-0.472053 -0.391893,-0.472053 -0.391893,-1.238026 V 15.93699 Q 10.175319,15.85683 10.086252,15.83011 9.9437455,15.80339 9.9437455,15.660884 v -0.37408 h 1.4428785 v 2.867944 q 0,0.5344 0.231574,0.8016 0.240479,0.276106 0.712532,0.276106 z" /><path
       id="path118"
       style="font-style:normal;font-variant:normal;font-weight:normal;font-stretch:normal;font-size:8.90666px;font-family:Aleo;-inkscape-font-specification:'Aleo, Normal';font-variant-ligatures:normal;font-variant-caps:normal;font-variant-numeric:normal;font-variant-east-asian:normal;text-align:end;text-anchor:end;fill:#ffffff;stroke-width:0.222667"
       d="m 16.904022,15.928083 q 0.668,-0.721439 1.496319,-0.721439 0.730346,0 1.122239,0.472053 0.382987,0.463146 0.382987,1.238026 v 2.217758 q 0.427519,0.08016 0.507679,0.10688 0.142507,0.02672 0.142507,0.169226 v 0.382987 h -1.442879 v -2.867945 q 0,-1.086612 -0.944106,-1.086612 -0.668,0 -1.229119,0.632373 v 2.671998 q 0.03563,0 0.516586,0.10688 0.1336,0.02672 0.1336,0.169226 v 0.37408 h -2.075252 v -0.37408 q 0,-0.142506 0.124693,-0.169226 l 0.516587,-0.09797 V 15.93699 Q 15.71053,15.85683 15.639276,15.83011 15.514583,15.80339 15.514583,15.660884 v -0.37408 h 1.104426 q 0.16032,0 0.21376,0.16032 l 0.07125,0.489866 z" /><path
       id="path120"
       style="font-style:normal;font-variant:normal;font-weight:normal;font-stretch:normal;font-size:8.90666px;font-family:Aleo;-inkscape-font-specification:'Aleo, Normal';font-variant-ligatures:normal;font-variant-caps:normal;font-variant-numeric:normal;font-variant-east-asian:normal;text-align:end;text-anchor:end;fill:#ffffff;stroke-width:0.222667"
       d="m 22.933831,15.197737 q 0.74816,0 1.229119,0.5344 v -1.852585 l -0.596746,-0.10688 q -0.1336,-0.02672 -0.1336,-0.16032 v -0.391893 h 1.514132 v 5.914022 q 0.445333,0.08016 0.516587,0.10688 0.124693,0.02672 0.124693,0.16032 v 0.391893 H 24.48359 q -0.16032,0 -0.21376,-0.169227 l -0.07125,-0.543306 q -0.632373,0.765973 -1.514132,0.765973 -0.792693,0 -1.246933,-0.58784 -0.463146,-0.614559 -0.463146,-1.710078 0,-1.024266 0.525493,-1.674453 0.543306,-0.676906 1.433972,-0.676906 z m 0.01781,4.016904 q 0.703626,0 1.211305,-0.685813 v -2.173225 q -0.400799,-0.5344 -1.042079,-0.5344 -0.650186,0 -0.988639,0.445333 -0.338453,0.445333 -0.338453,1.28256 0,1.273652 0.659093,1.567572 0.204853,0.08907 0.489866,0.08907 z" /><path
       id="path122"
       style="font-style:normal;font-variant:normal;font-weight:normal;font-stretch:normal;font-size:8.90666px;font-family:Aleo;-inkscape-font-specification:'Aleo, Normal';font-variant-ligatures:normal;font-variant-caps:normal;font-variant-numeric:normal;font-variant-east-asian:normal;text-align:end;text-anchor:end;fill:#ffffff;stroke-width:0.222667"
       d="m 30.009755,19.223548 q 0.06235,0.0089 0.09797,0.06235 0.03563,0.04453 0.03563,0.10688 v 0.382987 h -0.926292 q -0.08016,0 -0.18704,-0.03563 -0.06235,-0.01781 -0.08907,-0.142507 l -0.08907,-0.427519 -0.356267,0.293919 q -0.151413,0.124694 -0.356266,0.21376 -0.195947,0.08907 -0.391893,0.1336 -0.178133,0.04453 -0.48096,0.04453 -0.249386,0 -0.480959,-0.08016 -0.276107,-0.09797 -0.4008,-0.21376 -0.16032,-0.142507 -0.2672,-0.37408 -0.09797,-0.204853 -0.09797,-0.5344 0,-0.285013 0.142506,-0.516586 0.16032,-0.258293 0.48096,-0.445333 0.356266,-0.204853 0.855039,-0.32064 0.516587,-0.115786 1.300373,-0.115786 v -0.34736 q 0,-0.525493 -0.231573,-0.801599 -0.231574,-0.276107 -0.668,-0.276107 -0.285013,0 -0.489866,0.08016 -0.231573,0.08907 -0.338453,0.16032 -0.05344,0.03563 -0.124694,0.08016 -0.06235,0.03563 -0.133599,0.08016 -0.09797,0.07125 -0.204854,0.07125 -0.09797,0 -0.142506,-0.03563 -0.05344,-0.04453 -0.08907,-0.106879 L 26.233331,15.91027 q 0.347359,-0.338453 0.801599,-0.5344 0.409706,-0.178133 0.961919,-0.178133 0.4008,0 0.676907,0.124693 0.302826,0.1336 0.489866,0.338454 0.195946,0.204853 0.302826,0.534399 0.09797,0.29392 0.09797,0.69472 v 2.253385 q 0.427519,0.08907 0.445333,0.09797 z m -1.22912,-1.460693 q -0.578932,0 -0.926292,0.06235 -0.338453,0.06235 -0.623466,0.18704 -0.249387,0.115786 -0.356267,0.2672 -0.10688,0.16032 -0.10688,0.338453 0,0.142506 0.06235,0.302826 0.05344,0.1336 0.16032,0.21376 0.10688,0.08016 0.231573,0.115787 0.151413,0.04453 0.29392,0.04453 0.178133,0 0.374079,-0.04453 0.178134,-0.04453 0.329547,-0.115787 0.1336,-0.06235 0.29392,-0.195947 0.08907,-0.07125 0.267199,-0.249386 z" /><path
       id="path124"
       style="font-style:normal;font-variant:normal;font-weight:normal;font-stretch:normal;font-size:8.90666px;font-family:Aleo;-inkscape-font-specification:'Aleo, Normal';font-variant-ligatures:normal;font-variant-caps:normal;font-variant-numeric:normal;font-variant-east-asian:normal;text-align:end;text-anchor:end;fill:#ffffff;stroke-width:0.222667"
       d="m 32.064272,15.919177 q 0.570026,-0.703626 1.273652,-0.703626 0.463146,0 0.748159,0.258293 0.276107,0.249386 0.409707,0.685813 0.195946,-0.48096 0.587839,-0.712533 0.409707,-0.231573 0.783786,-0.231573 0.391893,0 0.69472,0.115786 0.285013,0.10688 0.48096,0.329547 0.391893,0.445333 0.391893,1.264745 v 2.226665 q 0.445333,0.08016 0.516586,0.10688 0.1336,0.02672 0.1336,0.16032 v 0.391893 h -1.433972 v -2.876851 q 0,-0.543306 -0.231574,-0.801599 -0.249386,-0.276107 -0.676906,-0.276107 -0.409706,0 -0.676906,0.2672 -0.29392,0.29392 -0.29392,0.801599 v 2.226665 q 0.03563,0.0089 0.151413,0.03563 0.115787,0.02672 0.356267,0.07125 0.1336,0.02672 0.1336,0.16032 v 0.382987 h -1.433973 v -2.876852 q 0,-1.068799 -0.855039,-1.068799 -0.552213,0 -1.006452,0.58784 v 2.707624 l 0.240479,0.04453 0.2672,0.05344 q 0.1336,0.02672 0.1336,0.169226 v 0.37408 h -2.075252 v -0.37408 q 0,-0.142506 0.124694,-0.169226 l 0.516586,-0.09797 V 15.93699 q -0.445333,-0.08016 -0.516586,-0.10688 -0.124694,-0.02672 -0.124694,-0.169226 v -0.37408 h 1.104426 q 0.16032,0 0.21376,0.16032 l 0.06235,0.463146 z" /><path
       id="path126"
       style="font-style:normal;font-variant:normal;font-weight:normal;font-stretch:normal;font-size:8.90666px;font-family:Aleo;-inkscape-font-specification:'Aleo, Normal';font-variant-ligatures:normal;font-variant-caps:normal;font-variant-numeric:normal;font-variant-east-asian:normal;text-align:end;text-anchor:end;fill:#ffffff;stroke-width:0.222667"
       d="m 40.60242,15.215551 q 0.391893,0 0.739252,0.133599 0.356267,0.1336 0.58784,0.382987 0.2672,0.285013 0.391893,0.632373 0.142507,0.400799 0.142507,0.855039 0,0.204853 -0.03563,0.249387 -0.04453,0.06235 -0.16032,0.06235 h -2.992638 q 0,0.42752 0.10688,0.74816 0.08907,0.276106 0.302827,0.516586 0.195946,0.222666 0.445333,0.32064 0.267199,0.10688 0.570026,0.10688 0.32064,0 0.516586,-0.06235 0.18704,-0.06235 0.37408,-0.151413 0.195946,-0.09797 0.2672,-0.142507 0.115786,-0.07125 0.178133,-0.07125 0.09797,0 0.151413,0.08016 l 0.222667,0.29392 q -0.124694,0.16032 -0.356267,0.302826 -0.2672,0.169227 -0.436426,0.222667 -0.2672,0.08907 -0.48096,0.124693 -0.2672,0.04453 -0.489866,0.04453 -0.463146,0 -0.863946,-0.16032 -0.382987,-0.151413 -0.685813,-0.472053 -0.285013,-0.29392 -0.445333,-0.757066 -0.16032,-0.454239 -0.16032,-1.033172 0,-0.463147 0.151413,-0.872853 0.151414,-0.418613 0.418613,-0.712533 0.276107,-0.302826 0.668,-0.472053 0.391893,-0.169226 0.872853,-0.169226 z m 0.01781,0.578932 q -0.578933,0 -0.899573,0.329547 -0.329546,0.34736 -0.409706,0.926293 h 2.449331 q 0,-0.276107 -0.08016,-0.498773 -0.09797,-0.276107 -0.213759,-0.4008 -0.151414,-0.16032 -0.365173,-0.258293 -0.204854,-0.08907 -0.489867,-0.08907 z" /><path
       id="path128"
       style="font-style:normal;font-variant:normal;font-weight:normal;font-stretch:normal;font-size:8.90666px;font-family:Aleo;-inkscape-font-specification:'Aleo, Normal';font-variant-ligatures:normal;font-variant-caps:normal;font-variant-numeric:normal;font-variant-east-asian:normal;text-align:end;text-anchor:end;fill:#ffffff;stroke-width:0.222667"
       d="m 44.389417,15.928083 q 0.667999,-0.721439 1.496319,-0.721439 0.730346,0 1.122239,0.472053 0.382986,0.463146 0.382986,1.238026 v 2.217758 q 0.42752,0.08016 0.50768,0.10688 0.142506,0.02672 0.142506,0.169226 v 0.382987 h -1.442879 v -2.867945 q 0,-1.086612 -0.944106,-1.086612 -0.667999,0 -1.229119,0.632373 v 2.671998 q 0.03563,0 0.516587,0.10688 0.133599,0.02672 0.133599,0.169226 v 0.37408 h -2.075251 v -0.37408 q 0,-0.142506 0.124693,-0.169226 l 0.516586,-0.09797 V 15.93699 q -0.445333,-0.08016 -0.516586,-0.10688 -0.124693,-0.02672 -0.124693,-0.169226 v -0.37408 h 1.104426 q 0.160319,0 0.213759,0.16032 l 0.07125,0.489866 z" /><path
       id="path130"
       style="font-style:normal;font-variant:normal;font-weight:normal;font-stretch:normal;font-size:8.90666px;font-family:Aleo;-inkscape-font-specification:'Aleo, Normal';font-variant-ligatures:normal;font-variant-caps:normal;font-variant-numeric:normal;font-variant-east-asian:normal;text-align:end;text-anchor:end;fill:#ffffff;stroke-width:0.222667"
       d="m 50.196562,19.864827 q -0.516586,0 -0.819413,-0.302826 -0.285013,-0.285013 -0.285013,-0.85504 V 15.945897 H 48.54883 q -0.08016,0 -0.124693,-0.03563 -0.04453,-0.03563 -0.04453,-0.1336 v -0.311733 l 0.739253,-0.09797 0.178133,-1.398346 q 0,-0.07125 0.05344,-0.10688 0.04453,-0.03563 0.124694,-0.03563 h 0.400799 v 1.549758 h 1.291466 v 0.578933 h -1.291466 v 2.707625 q 0,0.29392 0.1336,0.42752 0.1336,0.1336 0.365173,0.1336 0.09797,0 0.222667,-0.03563 0.08016,-0.02672 0.16032,-0.07125 0.02672,-0.01781 0.05344,-0.03563 0.02672,-0.01781 0.05344,-0.03563 0.07125,-0.03563 0.08907,-0.03563 0.06235,0 0.10688,0.07125 l 0.231573,0.37408 q -0.24048,0.204853 -0.498773,0.302826 -0.293919,0.10688 -0.596746,0.10688 z" /><path
       id="path132"
       style="font-style:normal;font-variant:normal;font-weight:normal;font-stretch:normal;font-size:8.90666px;font-family:Aleo;-inkscape-font-specification:'Aleo, Normal';font-variant-ligatures:normal;font-variant-caps:normal;font-variant-numeric:normal;font-variant-east-asian:normal;text-align:end;text-anchor:end;fill:#ffffff;stroke-width:0.222667"
       d="m 55.703383,19.223548 q 0.06235,0.0089 0.09797,0.06235 0.03563,0.04453 0.03563,0.10688 v 0.382987 H 54.91069 q -0.08016,0 -0.18704,-0.03563 -0.06235,-0.01781 -0.08907,-0.142507 l -0.08907,-0.427519 -0.356266,0.293919 q -0.151414,0.124694 -0.356267,0.21376 -0.195946,0.08907 -0.391893,0.1336 -0.178133,0.04453 -0.480959,0.04453 -0.249387,0 -0.48096,-0.08016 -0.276107,-0.09797 -0.4008,-0.21376 -0.16032,-0.142507 -0.2672,-0.37408 -0.09797,-0.204853 -0.09797,-0.5344 0,-0.285013 0.142507,-0.516586 0.16032,-0.258293 0.480959,-0.445333 0.356267,-0.204853 0.85504,-0.32064 0.516586,-0.115786 1.300372,-0.115786 v -0.34736 q 0,-0.525493 -0.231573,-0.801599 -0.231573,-0.276107 -0.668,-0.276107 -0.285013,0 -0.489866,0.08016 -0.231573,0.08907 -0.338453,0.16032 -0.05344,0.03563 -0.124693,0.08016 -0.06235,0.03563 -0.1336,0.08016 -0.09797,0.07125 -0.204853,0.07125 -0.09797,0 -0.142507,-0.03563 -0.05344,-0.04453 -0.08907,-0.106879 L 51.926959,15.91027 q 0.34736,-0.338453 0.801599,-0.5344 0.409707,-0.178133 0.96192,-0.178133 0.400799,0 0.676906,0.124693 0.302826,0.1336 0.489866,0.338454 0.195947,0.204853 0.302827,0.534399 0.09797,0.29392 0.09797,0.69472 v 2.253385 q 0.42752,0.08907 0.445333,0.09797 z m -1.229119,-1.460693 q -0.578933,0 -0.926293,0.06235 -0.338453,0.06235 -0.623466,0.18704 -0.249387,0.115786 -0.356267,0.2672 -0.106879,0.16032 -0.106879,0.338453 0,0.142506 0.06235,0.302826 0.05344,0.1336 0.16032,0.21376 0.10688,0.08016 0.231573,0.115787 0.151413,0.04453 0.29392,0.04453 0.178133,0 0.37408,-0.04453 0.178133,-0.04453 0.329546,-0.115787 0.1336,-0.06235 0.29392,-0.195947 0.08907,-0.07125 0.2672,-0.249386 z" /><path
       id="path134"
       style="font-style:normal;font-variant:normal;font-weight:normal;font-stretch:normal;font-size:8.90666px;font-family:Aleo;-inkscape-font-specification:'Aleo, Normal';font-variant-ligatures:normal;font-variant-caps:normal;font-variant-numeric:normal;font-variant-east-asian:normal;text-align:end;text-anchor:end;fill:#ffffff;stroke-width:0.222667"
       d="m 58.301204,19.241361 q 0.142507,0.02672 0.142507,0.169226 v 0.382987 h -2.084159 v -0.382987 q 0,-0.142506 0.142507,-0.169226 l 0.498773,-0.09797 v -5.263836 q -0.409706,-0.08016 -0.498773,-0.10688 -0.142507,-0.02672 -0.142507,-0.16032 v -0.382987 h 1.442879 v 5.905116 q 0.409707,0.08016 0.498773,0.10688 z" /><path
       id="path136"
       style="font-style:normal;font-variant:normal;font-weight:normal;font-stretch:normal;font-size:8.90666px;font-family:Aleo;-inkscape-font-specification:'Aleo, Normal';font-variant-ligatures:normal;font-variant-caps:normal;font-variant-numeric:normal;font-variant-east-asian:normal;text-align:end;text-anchor:end;fill:#ffffff;stroke-width:0.222667"
       d="m 15.404224,24.674424 q 1.318186,0.427519 1.318186,1.852585 0,0.917386 -0.605653,1.442879 -0.650186,0.570026 -1.763519,0.570026 h -0.908479 v 1.736799 q 0.07125,0.02672 0.516586,0.10688 0.124693,0.02672 0.124693,0.169226 v 0.37408 H 11.94844 v -0.37408 q 0,-0.142506 0.1336,-0.169226 l 0.507679,-0.09797 v -5.085702 q -0.427519,-0.08016 -0.507679,-0.10688 -0.1336,-0.02672 -0.1336,-0.169227 v -0.37408 h 2.404798 q 0.596746,0 1.050986,0.1336 z m 0.45424,1.834772 q 0,-0.596747 -0.37408,-0.944106 -0.365173,-0.338453 -1.131146,-0.338453 h -0.908479 v 2.618558 h 0.908479 q 0.72144,0 1.113333,-0.356267 0.400799,-0.365173 0.400799,-0.970826 z" /><path
       id="path138"
       style="font-style:normal;font-variant:normal;font-weight:normal;font-stretch:normal;font-size:8.90666px;font-family:Aleo;-inkscape-font-specification:'Aleo, Normal';font-variant-ligatures:normal;font-variant-caps:normal;font-variant-numeric:normal;font-variant-east-asian:normal;text-align:end;text-anchor:end;fill:#ffffff;stroke-width:0.222667"
       d="m 18.617719,27.337515 q 0.498773,-1.006453 1.371626,-1.006453 0.34736,0 0.614559,0.16032 l -0.09797,0.596746 q -0.02672,0.115787 -0.115787,0.115787 -0.06235,0 -0.213759,-0.04453 -0.151414,-0.04453 -0.365173,-0.04453 -0.783787,0 -1.157866,0.944106 v 2.226665 l 0.507679,0.09797 q 0.1336,0.02672 0.1336,0.169226 v 0.37408 h -2.075252 v -0.37408 q 0,-0.142506 0.1336,-0.169226 l 0.50768,-0.09797 v -3.215304 q -0.42752,-0.08016 -0.50768,-0.10688 -0.1336,-0.02672 -0.1336,-0.169226 v -0.37408 h 1.09552 q 0.124693,0 0.169226,0.04453 0.04453,0.04453 0.07125,0.169227 l 0.05344,0.703626 z" /><path
       id="path140"
       style="font-style:normal;font-variant:normal;font-weight:normal;font-stretch:normal;font-size:8.90666px;font-family:Aleo;-inkscape-font-specification:'Aleo, Normal';font-variant-ligatures:normal;font-variant-caps:normal;font-variant-numeric:normal;font-variant-east-asian:normal;text-align:end;text-anchor:end;fill:#ffffff;stroke-width:0.222667"
       d="m 22.955819,26.348876 q 0.489866,0 0.890666,0.16032 0.391893,0.160319 0.685813,0.463146 0.276106,0.285013 0.427519,0.730346 0.151413,0.436426 0.151413,0.961919 0,0.525493 -0.151413,0.96192 -0.151413,0.445333 -0.427519,0.730346 -0.29392,0.302826 -0.685813,0.463146 -0.4008,0.16032 -0.890666,0.16032 -0.489867,0 -0.890666,-0.16032 -0.391893,-0.16032 -0.685813,-0.463146 -0.2672,-0.276107 -0.436426,-0.730346 -0.142507,-0.382987 -0.142507,-0.96192 0,-0.578933 0.142507,-0.961919 0.169226,-0.45424 0.436426,-0.730346 0.29392,-0.302827 0.685813,-0.463146 0.400799,-0.16032 0.890666,-0.16032 z m 0,4.02581 q 0.685813,0 0.997546,-0.445333 0.329546,-0.463146 0.329546,-1.255839 0,-0.792693 -0.329546,-1.255839 -0.311733,-0.445333 -0.997546,-0.445333 -0.34736,0 -0.58784,0.10688 -0.231573,0.10688 -0.409706,0.338453 -0.169227,0.231573 -0.249387,0.534399 -0.08907,0.356267 -0.08907,0.730347 0,0.356266 0.08907,0.712532 0.08016,0.302827 0.249387,0.5344 0.151413,0.204853 0.409706,0.32064 0.285013,0.124693 0.58784,0.124693 z" /><path
       id="path142"
       style="font-style:normal;font-variant:normal;font-weight:normal;font-stretch:normal;font-size:8.90666px;font-family:Aleo;-inkscape-font-specification:'Aleo, Normal';font-variant-ligatures:normal;font-variant-caps:normal;font-variant-numeric:normal;font-variant-east-asian:normal;text-align:end;text-anchor:end;fill:#ffffff;stroke-width:0.222667"
       d="m 30.007388,28.673514 q 0,0.56112 -0.160319,0.988639 -0.169227,0.445333 -0.42752,0.730346 -0.258293,0.285013 -0.623466,0.445333 -0.356267,0.16032 -0.783786,0.16032 -0.757066,0 -1.995092,-0.249386 v -5.735889 l -0.195947,-0.02672 -0.374079,-0.06235 q -0.06235,-0.0089 -0.09797,-0.05344 -0.03563,-0.05344 -0.03563,-0.115786 v -0.382987 h 1.505225 v 2.698718 q 0.285013,-0.329546 0.64128,-0.525493 0.356266,-0.195946 0.819412,-0.195946 0.4008,0 0.712533,0.142506 0.311733,0.142507 0.5344,0.445333 0.222666,0.311733 0.338453,0.712533 0.124693,0.445333 0.124693,0.997546 h 0.01781 z m -1.166772,1.238026 q 0.169227,-0.222667 0.258293,-0.5344 0.08907,-0.329546 0.08907,-0.676906 v -0.07125 q 0,-0.463147 -0.07125,-0.74816 -0.08016,-0.302826 -0.231573,-0.516586 -0.16032,-0.21376 -0.356266,-0.302827 -0.204853,-0.08907 -0.489866,-0.08907 -0.409707,0 -0.685813,0.178133 -0.29392,0.18704 -0.5344,0.50768 v 2.574024 q 0.124693,0.03563 0.37408,0.08907 0.258293,0.04453 0.516586,0.05344 h 0.231573 q 0.29392,-0.01781 0.48096,-0.10688 0.231573,-0.10688 0.409706,-0.338453 z" /><path
       id="path144"
       style="font-style:normal;font-variant:normal;font-weight:normal;font-stretch:normal;font-size:8.90666px;font-family:Aleo;-inkscape-font-specification:'Aleo, Normal';font-variant-ligatures:normal;font-variant-caps:normal;font-variant-numeric:normal;font-variant-east-asian:normal;text-align:end;text-anchor:end;fill:#ffffff;stroke-width:0.222667"
       d="m 32.416224,30.374686 q 0.142506,0.02672 0.142506,0.169227 v 0.382986 h -2.084158 v -0.382986 q 0,-0.142507 0.142506,-0.169227 l 0.498773,-0.09797 v -5.263836 q -0.409706,-0.08016 -0.498773,-0.10688 -0.142506,-0.02672 -0.142506,-0.16032 V 24.36269 h 1.442879 v 5.905116 q 0.409706,0.08016 0.498773,0.10688 z" /><path
       id="path146"
       style="font-style:normal;font-variant:normal;font-weight:normal;font-stretch:normal;font-size:8.90666px;font-family:Aleo;-inkscape-font-specification:'Aleo, Normal';font-variant-ligatures:normal;font-variant-caps:normal;font-variant-numeric:normal;font-variant-east-asian:normal;text-align:end;text-anchor:end;fill:#ffffff;stroke-width:0.222667"
       d="m 35.053152,26.348876 q 0.391893,0 0.739252,0.1336 0.356267,0.133599 0.58784,0.382986 0.2672,0.285013 0.391893,0.632373 0.142506,0.4008 0.142506,0.855039 0,0.204853 -0.03563,0.249387 -0.04453,0.06235 -0.16032,0.06235 h -2.992638 q 0,0.42752 0.10688,0.74816 0.08907,0.276106 0.302827,0.516586 0.195946,0.222667 0.445333,0.32064 0.267199,0.10688 0.570026,0.10688 0.32064,0 0.516586,-0.06235 0.18704,-0.06235 0.37408,-0.151413 0.195946,-0.09797 0.2672,-0.142507 0.115786,-0.07125 0.178133,-0.07125 0.09797,0 0.151413,0.08016 l 0.222667,0.29392 q -0.124694,0.16032 -0.356267,0.302826 -0.2672,0.169227 -0.436426,0.222667 -0.2672,0.08907 -0.48096,0.124693 -0.2672,0.04453 -0.489866,0.04453 -0.463146,0 -0.863946,-0.16032 -0.382987,-0.151413 -0.685813,-0.472053 -0.285013,-0.293919 -0.445333,-0.757066 -0.16032,-0.454239 -0.16032,-1.033172 0,-0.463147 0.151413,-0.872853 0.151414,-0.418613 0.418613,-0.712533 0.276107,-0.302826 0.668,-0.472053 0.391893,-0.169226 0.872853,-0.169226 z m 0.01781,0.578933 q -0.578933,0 -0.899573,0.329546 -0.329546,0.34736 -0.409706,0.926293 h 2.449331 q 0,-0.276107 -0.08016,-0.498773 -0.09797,-0.276107 -0.213759,-0.4008 -0.151414,-0.16032 -0.365174,-0.258293 -0.204853,-0.08907 -0.489866,-0.08907 z" /><path
       id="path148"
       style="font-style:normal;font-variant:normal;font-weight:normal;font-stretch:normal;font-size:8.90666px;font-family:Aleo;-inkscape-font-specification:'Aleo, Normal';font-variant-ligatures:normal;font-variant-caps:normal;font-variant-numeric:normal;font-variant-east-asian:normal;text-align:end;text-anchor:end;fill:#ffffff;stroke-width:0.222667"
       d="m 38.831244,27.052502 q 0.570026,-0.703626 1.273652,-0.703626 0.463147,0 0.74816,0.258293 0.276106,0.249386 0.409706,0.685813 0.195947,-0.48096 0.58784,-0.712533 0.409706,-0.231573 0.783786,-0.231573 0.391893,0 0.694719,0.115786 0.285013,0.10688 0.48096,0.329547 0.391893,0.445333 0.391893,1.264745 v 2.226665 q 0.445333,0.08016 0.516586,0.10688 0.1336,0.02672 0.1336,0.16032 v 0.391893 h -1.433972 v -2.876851 q 0,-0.543306 -0.231573,-0.801599 -0.249387,-0.276107 -0.676907,-0.276107 -0.409706,0 -0.676906,0.2672 -0.29392,0.29392 -0.29392,0.801599 v 2.226665 q 0.03563,0.0089 0.151414,0.03563 0.115786,0.02672 0.356266,0.07125 0.1336,0.02672 0.1336,0.16032 v 0.382987 h -1.433972 v -2.876852 q 0,-1.068799 -0.85504,-1.068799 -0.552213,0 -1.006452,0.58784 v 2.707624 l 0.24048,0.04453 0.267199,0.05344 q 0.1336,0.02672 0.1336,0.169226 v 0.37408 h -2.075251 v -0.37408 q 0,-0.142506 0.124693,-0.169226 l 0.516586,-0.09797 v -3.215304 q -0.445333,-0.08016 -0.516586,-0.10688 -0.124693,-0.02672 -0.124693,-0.169226 v -0.37408 h 1.104425 q 0.16032,0 0.21376,0.16032 l 0.06235,0.463146 z" /><path
       id="path150"
       style="font-style:normal;font-variant:normal;font-weight:normal;font-stretch:normal;font-size:8.90666px;font-family:Aleo;-inkscape-font-specification:'Aleo, Normal';font-variant-ligatures:normal;font-variant-caps:normal;font-variant-numeric:normal;font-variant-east-asian:normal;text-align:end;text-anchor:end;fill:#ffffff;stroke-width:0.222667"
       d="m 47.137817,26.348876 q 0.463146,0 1.175679,0.240479 v 1.157866 h -0.34736 q -0.124693,0 -0.151413,-0.124693 l -0.05344,-0.587839 q -0.418613,-0.09797 -0.69472,-0.09797 h -0.0089 q -0.365173,0 -0.61456,0.195947 -0.24048,0.18704 -0.24048,0.409706 0,0.231573 0.10688,0.338453 0.178134,0.204853 0.516587,0.311733 l 0.267199,0.08016 q 0.07125,0.01781 0.285014,0.08907 l 0.427519,0.16032 q 0.178133,0.06235 0.37408,0.231573 0.365173,0.285013 0.365173,0.783786 0,0.650186 -0.436426,1.033173 -0.472053,0.418613 -1.193493,0.418613 -0.739253,0 -1.460692,-0.24048 v -1.175679 h 0.32064 q 0.10688,0 0.1336,0.10688 l 0.05344,0.570026 q 0.356266,0.178133 0.917386,0.178133 0.427519,0 0.694719,-0.222667 0.231573,-0.204853 0.231573,-0.454239 0,-0.258293 -0.10688,-0.37408 -0.124693,-0.142506 -0.267199,-0.21376 -0.195947,-0.09797 -0.37408,-0.142506 -0.659093,-0.21376 -0.82832,-0.285013 -0.213759,-0.09797 -0.400799,-0.249387 -0.37408,-0.311733 -0.37408,-0.837226 0,-0.5344 0.42752,-0.908479 0.445333,-0.391893 1.255839,-0.391893 z" /><path
       id="path152"
       style="font-style:normal;font-variant:normal;font-weight:normal;font-stretch:normal;font-size:8.90666px;font-family:Aleo;-inkscape-font-specification:'Aleo, Normal';font-variant-ligatures:normal;font-variant-caps:normal;font-variant-numeric:normal;font-variant-east-asian:normal;text-align:end;text-anchor:end;fill:#ffffff;stroke-width:0.222667"
       d="m 52.998402,26.348876 q 0.489867,0 0.890666,0.16032 0.391893,0.160319 0.685813,0.463146 0.276106,0.285013 0.42752,0.730346 0.151413,0.436426 0.151413,0.961919 0,0.525493 -0.151413,0.96192 -0.151414,0.445333 -0.42752,0.730346 -0.29392,0.302826 -0.685813,0.463146 -0.400799,0.16032 -0.890666,0.16032 -0.489866,0 -0.890666,-0.16032 -0.391893,-0.16032 -0.685813,-0.463146 -0.267199,-0.276107 -0.436426,-0.730346 -0.142507,-0.382987 -0.142507,-0.96192 0,-0.578933 0.142507,-0.961919 0.169227,-0.45424 0.436426,-0.730346 0.29392,-0.302827 0.685813,-0.463146 0.4008,-0.16032 0.890666,-0.16032 z m 0,4.02581 q 0.685813,0 0.997546,-0.445333 0.329547,-0.463146 0.329547,-1.255839 0,-0.792693 -0.329547,-1.255839 -0.311733,-0.445333 -0.997546,-0.445333 -0.34736,0 -0.587839,0.10688 -0.231574,0.10688 -0.409707,0.338453 -0.169226,0.231573 -0.249386,0.534399 -0.08907,0.356267 -0.08907,0.730347 0,0.356266 0.08907,0.712532 0.08016,0.302827 0.249386,0.5344 0.151413,0.204853 0.409707,0.32064 0.285013,0.124693 0.587839,0.124693 z" /><path
       id="path154"
       style="font-style:normal;font-variant:normal;font-weight:normal;font-stretch:normal;font-size:8.90666px;font-family:Aleo;-inkscape-font-specification:'Aleo, Normal';font-variant-ligatures:normal;font-variant-caps:normal;font-variant-numeric:normal;font-variant-east-asian:normal;text-align:end;text-anchor:end;fill:#ffffff;stroke-width:0.222667"
       d="m 57.998098,25.066317 q -0.90848,0 -0.90848,1.024266 v 0.418613 h 1.300373 v 0.570026 h -1.282559 v 3.197491 q 0.427519,0.06235 0.596746,0.09797 0.1336,0.02672 0.1336,0.169227 v 0.382986 h -2.208852 v -0.382986 q 0,-0.142507 0.1336,-0.169227 l 0.552213,-0.09797 v -3.179678 l -0.498773,-0.06235 q -0.21376,-0.05344 -0.21376,-0.204854 v -0.320639 h 0.712533 v -0.436427 q 0,-0.783786 0.418613,-1.202399 0.409706,-0.418613 1.131146,-0.418613 0.267199,0 0.561119,0.08907 l -0.01781,0.400799 q 0,0.08016 -0.08016,0.10688 -0.05344,0.01781 -0.204853,0.01781 z" /><path
       id="path156"
       style="font-style:normal;font-variant:normal;font-weight:normal;font-stretch:normal;font-size:8.90666px;font-family:Aleo;-inkscape-font-specification:'Aleo, Normal';font-variant-ligatures:normal;font-variant-caps:normal;font-variant-numeric:normal;font-variant-east-asian:normal;text-align:end;text-anchor:end;fill:#ffffff;stroke-width:0.222667"
       d="m 17.63576,37.090308 h -0.436427 q -0.142506,0 -0.169226,-0.08907 -0.04453,-0.151413 -0.08907,-0.587839 h -1.496319 v 5.005543 l 0.10688,0.01781 q 0.409707,0.08016 0.445333,0.08907 0.08907,0.02672 0.08907,0.16032 v 0.37408 h -2.155412 v -0.37408 q 0,-0.07125 0.03563,-0.115786 0.04453,-0.05344 0.115786,-0.06235 l 0.489867,-0.09797 v -5.005543 h -1.505226 q -0.05344,0.498773 -0.08016,0.596746 -0.02672,0.08907 -0.178133,0.08907 h -0.42752 v -1.407253 h 5.25493 z" /><path
       id="path158"
       style="font-style:normal;font-variant:normal;font-weight:normal;font-stretch:normal;font-size:8.90666px;font-family:Aleo;-inkscape-font-specification:'Aleo, Normal';font-variant-ligatures:normal;font-variant-caps:normal;font-variant-numeric:normal;font-variant-east-asian:normal;text-align:end;text-anchor:end;fill:#ffffff;stroke-width:0.222667"
       d="m 19.135975,37.482201 q 0.391893,0 0.739253,0.1336 0.356267,0.1336 0.58784,0.382986 0.267199,0.285013 0.391893,0.632373 0.142506,0.4008 0.142506,0.855039 0,0.204853 -0.03563,0.249387 -0.04453,0.06235 -0.16032,0.06235 h -2.992638 q 0,0.42752 0.10688,0.74816 0.08907,0.276106 0.302826,0.516586 0.195947,0.222667 0.445333,0.32064 0.2672,0.10688 0.570027,0.10688 0.320639,0 0.516586,-0.06235 0.18704,-0.06235 0.37408,-0.151413 0.195946,-0.09797 0.267199,-0.142507 0.115787,-0.07125 0.178134,-0.07125 0.09797,0 0.151413,0.08016 l 0.222666,0.29392 q -0.124693,0.16032 -0.356266,0.302826 -0.2672,0.169227 -0.436426,0.222667 -0.2672,0.08907 -0.48096,0.124693 -0.2672,0.04453 -0.489866,0.04453 -0.463147,0 -0.863946,-0.16032 -0.382987,-0.151413 -0.685813,-0.472053 -0.285013,-0.293919 -0.445333,-0.757066 -0.16032,-0.454239 -0.16032,-1.033172 0,-0.463147 0.151413,-0.872853 0.151413,-0.418613 0.418613,-0.712533 0.276107,-0.302826 0.668,-0.472053 0.391893,-0.169226 0.872852,-0.169226 z m 0.01781,0.578933 q -0.578933,0 -0.899573,0.329546 -0.329546,0.34736 -0.409706,0.926293 h 2.449331 q 0,-0.276107 -0.08016,-0.498773 -0.09797,-0.276107 -0.21376,-0.4008 -0.151413,-0.16032 -0.365173,-0.258293 -0.204853,-0.08907 -0.489866,-0.08907 z" /><path
       id="path160"
       style="font-style:normal;font-variant:normal;font-weight:normal;font-stretch:normal;font-size:8.90666px;font-family:Aleo;-inkscape-font-specification:'Aleo, Normal';font-variant-ligatures:normal;font-variant-caps:normal;font-variant-numeric:normal;font-variant-east-asian:normal;text-align:end;text-anchor:end;fill:#ffffff;stroke-width:0.222667"
       d="m 25.304534,41.427851 q -0.56112,0.69472 -1.674452,0.69472 -0.85504,0 -1.407253,-0.61456 -0.578933,-0.650186 -0.578933,-1.710079 0,-1.033172 0.543307,-1.665545 0.570026,-0.650186 1.585385,-0.650186 0.50768,0 1.335999,0.32064 v 1.175679 h -0.356266 q -0.124693,0 -0.151413,-0.124694 -0.0089,-0.02672 -0.03563,-0.338453 l -0.02672,-0.293919 q -0.09797,-0.03563 -0.195947,-0.05344 -0.08907,-0.01781 -0.124693,-0.02672 -0.24048,-0.03563 -0.498773,-0.03563 -0.231573,0 -0.489866,0.115787 -0.24048,0.106879 -0.418613,0.329546 -0.338453,0.445333 -0.338453,1.246932 0,0.8016 0.356266,1.264746 0.34736,0.445333 0.953013,0.445333 0.561119,0 0.988639,-0.37408 0.07125,-0.07125 0.178133,-0.07125 0.09797,0 0.142507,0.07125 z" /><path
       id="path162"
       style="font-style:normal;font-variant:normal;font-weight:normal;font-stretch:normal;font-size:8.90666px;font-family:Aleo;-inkscape-font-specification:'Aleo, Normal';font-variant-ligatures:normal;font-variant-caps:normal;font-variant-numeric:normal;font-variant-east-asian:normal;text-align:end;text-anchor:end;fill:#ffffff;stroke-width:0.222667"
       d="m 27.238391,38.159107 q 0.650187,-0.676906 1.442879,-0.676906 0.72144,0 1.12224,0.463146 0.391893,0.463146 0.391893,1.246933 v 2.217758 q 0.427519,0.08016 0.507679,0.10688 0.1336,0.02672 0.1336,0.169226 v 0.37408 H 29.40271 V 39.19228 q 0,-1.077706 -0.953013,-1.077706 -0.650186,0 -1.211306,0.632373 v 2.671998 l 0.10688,0.01781 0.391893,0.08016 q 0.142507,0.02672 0.142507,0.169226 v 0.37408 h -2.084158 v -0.37408 q 0,-0.142506 0.142506,-0.169226 l 0.498773,-0.09797 v -5.263837 q -0.50768,-0.08016 -0.58784,-0.106879 -0.142506,-0.02672 -0.142506,-0.169227 v -0.37408 h 1.531945 z" /><path
       id="path164"
       style="font-style:normal;font-variant:normal;font-weight:normal;font-stretch:normal;font-size:8.90666px;font-family:Aleo;-inkscape-font-specification:'Aleo, Normal';font-variant-ligatures:normal;font-variant-caps:normal;font-variant-numeric:normal;font-variant-east-asian:normal;text-align:end;text-anchor:end;fill:#ffffff;stroke-width:0.222667"
       d="m 32.751615,38.194734 q 0.668,-0.72144 1.496319,-0.72144 0.730346,0 1.122239,0.472053 0.382987,0.463146 0.382987,1.238026 v 2.217758 q 0.427519,0.08016 0.507679,0.10688 0.142507,0.02672 0.142507,0.169227 v 0.382986 H 34.960467 V 39.19228 q 0,-1.086613 -0.944106,-1.086613 -0.668,0 -1.229119,0.632373 v 2.671998 q 0.03563,0 0.516586,0.10688 0.1336,0.02672 0.1336,0.169226 v 0.37408 h -2.075252 v -0.37408 q 0,-0.142506 0.124693,-0.169226 l 0.516587,-0.09797 V 38.20364 q -0.445333,-0.08016 -0.516587,-0.10688 -0.124693,-0.02672 -0.124693,-0.169226 v -0.37408 h 1.104426 q 0.16032,0 0.21376,0.16032 l 0.07125,0.489866 z" /><path
       id="path166"
       style="font-style:normal;font-variant:normal;font-weight:normal;font-stretch:normal;font-size:8.90666px;font-family:Aleo;-inkscape-font-specification:'Aleo, Normal';font-variant-ligatures:normal;font-variant-caps:normal;font-variant-numeric:normal;font-variant-east-asian:normal;text-align:end;text-anchor:end;fill:#ffffff;stroke-width:0.222667"
       d="m 38.97737,37.482201 q 0.489866,0 0.890666,0.16032 0.391893,0.16032 0.685813,0.463146 0.276106,0.285013 0.427519,0.730346 0.151414,0.436426 0.151414,0.961919 0,0.525493 -0.151414,0.96192 -0.151413,0.445333 -0.427519,0.730346 -0.29392,0.302826 -0.685813,0.463146 -0.4008,0.16032 -0.890666,0.16032 -0.489866,0 -0.890666,-0.16032 -0.391893,-0.16032 -0.685813,-0.463146 -0.2672,-0.276107 -0.436426,-0.730346 -0.142507,-0.382987 -0.142507,-0.96192 0,-0.578933 0.142507,-0.961919 0.169226,-0.45424 0.436426,-0.730346 0.29392,-0.302826 0.685813,-0.463146 0.4008,-0.16032 0.890666,-0.16032 z m 0,4.02581 q 0.685813,0 0.997546,-0.445333 0.329546,-0.463146 0.329546,-1.255839 0,-0.792693 -0.329546,-1.255839 -0.311733,-0.445333 -0.997546,-0.445333 -0.34736,0 -0.58784,0.10688 -0.231573,0.10688 -0.409706,0.338453 -0.169227,0.231573 -0.249387,0.5344 -0.08907,0.356266 -0.08907,0.730346 0,0.356266 0.08907,0.712533 0.08016,0.302826 0.249387,0.534399 0.151413,0.204853 0.409706,0.32064 0.285013,0.124693 0.58784,0.124693 z" /><path
       id="path168"
       style="font-style:normal;font-variant:normal;font-weight:normal;font-stretch:normal;font-size:8.90666px;font-family:Aleo;-inkscape-font-specification:'Aleo, Normal';font-variant-ligatures:normal;font-variant-caps:normal;font-variant-numeric:normal;font-variant-east-asian:normal;text-align:end;text-anchor:end;fill:#ffffff;stroke-width:0.222667"
       d="m 43.549549,41.508011 q 0.142507,0.02672 0.142507,0.169227 v 0.382986 h -2.084159 v -0.382986 q 0,-0.142507 0.142507,-0.169227 l 0.498773,-0.09797 v -5.263836 q -0.409706,-0.08016 -0.498773,-0.10688 -0.142507,-0.02672 -0.142507,-0.16032 v -0.382986 h 1.442879 v 5.905115 q 0.409707,0.08016 0.498773,0.10688 z" /><path
       id="path170"
       style="font-style:normal;font-variant:normal;font-weight:normal;font-stretch:normal;font-size:8.90666px;font-family:Aleo;-inkscape-font-specification:'Aleo, Normal';font-variant-ligatures:normal;font-variant-caps:normal;font-variant-numeric:normal;font-variant-east-asian:normal;text-align:end;text-anchor:end;fill:#ffffff;stroke-width:0.222667"
       d="m 46.248824,37.482201 q 0.489866,0 0.890666,0.16032 0.391893,0.16032 0.685813,0.463146 0.276106,0.285013 0.427519,0.730346 0.151413,0.436426 0.151413,0.961919 0,0.525493 -0.151413,0.96192 -0.151413,0.445333 -0.427519,0.730346 -0.29392,0.302826 -0.685813,0.463146 -0.4008,0.16032 -0.890666,0.16032 -0.489867,0 -0.890666,-0.16032 -0.391893,-0.16032 -0.685813,-0.463146 -0.2672,-0.276107 -0.436426,-0.730346 -0.142507,-0.382987 -0.142507,-0.96192 0,-0.578933 0.142507,-0.961919 0.169226,-0.45424 0.436426,-0.730346 0.29392,-0.302826 0.685813,-0.463146 0.400799,-0.16032 0.890666,-0.16032 z m 0,4.02581 q 0.685813,0 0.997546,-0.445333 0.329546,-0.463146 0.329546,-1.255839 0,-0.792693 -0.329546,-1.255839 -0.311733,-0.445333 -0.997546,-0.445333 -0.34736,0 -0.58784,0.10688 -0.231573,0.10688 -0.409706,0.338453 -0.169227,0.231573 -0.249387,0.5344 -0.08907,0.356266 -0.08907,0.730346 0,0.356266 0.08907,0.712533 0.08016,0.302826 0.249387,0.534399 0.151413,0.204853 0.409706,0.32064 0.285013,0.124693 0.58784,0.124693 z" /><path
       id="path172"
       style="font-style:normal;font-variant:normal;font-weight:normal;font-stretch:normal;font-size:8.90666px;font-family:Aleo;-inkscape-font-specification:'Aleo, Normal';font-variant-ligatures:normal;font-variant-caps:normal;font-variant-numeric:normal;font-variant-east-asian:normal;text-align:end;text-anchor:end;fill:#ffffff;stroke-width:0.222667"
       d="m 50.860106,37.491107 q 0.302827,0 0.543307,0.06235 0.258293,0.07125 0.463146,0.195947 h 1.229119 v 0.293919 q 0,0.142507 -0.18704,0.18704 l -0.50768,0.07125 q 0.142507,0.258293 0.142507,0.641279 0,0.34736 -0.124693,0.596746 -0.142507,0.285013 -0.34736,0.45424 -0.249386,0.204853 -0.5344,0.302826 -0.285013,0.09797 -0.676906,0.09797 -0.32064,0 -0.596746,-0.08016 -0.124693,0.07125 -0.21376,0.195946 -0.07125,0.09797 -0.07125,0.195947 0,0.169226 0.124693,0.24048 0.151413,0.08907 0.34736,0.115786 0.285013,0.03563 0.489866,0.03563 0.178133,0 0.552213,0.03563 0.07125,0.0089 0.24048,0.02672 0.178133,0.0089 0.311733,0.03563 0.285013,0.05344 0.489866,0.16032 0.195947,0.09797 0.34736,0.311733 0.124693,0.178133 0.124693,0.498773 0,0.311733 -0.142506,0.570026 -0.1336,0.249387 -0.42752,0.48096 -0.258293,0.204853 -0.659093,0.338453 -0.374079,0.124693 -0.890666,0.124693 -0.534399,0 -0.872852,-0.09797 -0.37408,-0.10688 -0.61456,-0.2672 -0.24048,-0.16032 -0.365173,-0.382986 -0.124693,-0.222667 -0.124693,-0.445333 0,-0.329547 0.21376,-0.570027 0.213759,-0.240479 0.587839,-0.374079 -0.18704,-0.08016 -0.302826,-0.24048 -0.115787,-0.16032 -0.115787,-0.4008 0,-0.05344 0.03563,-0.195946 0.02672,-0.10688 0.10688,-0.21376 0.07125,-0.09797 0.187039,-0.195947 0.03563,-0.03563 0.249387,-0.16032 -0.338453,-0.187039 -0.525493,-0.498772 -0.18704,-0.311734 -0.18704,-0.72144 0,-0.34736 0.124693,-0.596746 0.1336,-0.276107 0.356267,-0.45424 0.222666,-0.18704 0.552213,-0.29392 0.29392,-0.09797 0.685813,-0.09797 z m 0.0089,2.395892 q 0.231573,0 0.42752,-0.07125 0.169226,-0.06235 0.311733,-0.18704 0.124693,-0.115787 0.18704,-0.29392 0.06235,-0.18704 0.06235,-0.365173 0,-0.418613 -0.258293,-0.659093 -0.249386,-0.24048 -0.730346,-0.24048 -0.472053,0 -0.730346,0.24048 -0.249387,0.24048 -0.249387,0.659093 0,0.195947 0.07125,0.365173 0.08016,0.18704 0.187039,0.285013 0.142507,0.124693 0.311734,0.18704 0.178133,0.06235 0.409706,0.06235 z m 1.407252,2.440425 q 0,-0.169227 -0.08907,-0.2672 -0.08907,-0.10688 -0.258294,-0.16032 -0.169226,-0.05344 -0.365173,-0.08016 -0.285013,-0.03563 -0.445333,-0.04453 l -0.472053,-0.01781 q -0.04453,0 -0.454239,-0.05344 -0.258293,0.124693 -0.418613,0.293919 -0.16032,0.178134 -0.16032,0.418613 0,0.151414 0.08016,0.285014 0.08016,0.124693 0.24048,0.222666 0.169226,0.09797 0.400799,0.151413 0.24048,0.05344 0.570027,0.05344 0.276106,0 0.570026,-0.06235 0.231573,-0.04453 0.427519,-0.169227 0.178134,-0.10688 0.2672,-0.249386 0.09797,-0.151414 0.09797,-0.32064 z" /><path
       id="path174"
       style="font-style:normal;font-variant:normal;font-weight:normal;font-stretch:normal;font-size:8.90666px;font-family:Aleo;-inkscape-font-specification:'Aleo, Normal';font-variant-ligatures:normal;font-variant-caps:normal;font-variant-numeric:normal;font-variant-east-asian:normal;text-align:end;text-anchor:end;fill:#ffffff;stroke-width:0.222667"
       d="m 58.473632,37.927534 q 0,0.1336 -0.1336,0.16032 -0.03563,0 -0.10688,0.01781 -0.06235,0.01781 -0.1336,0.03563 l -0.222666,0.04453 -2.235572,5.201489 q -0.03563,0.08907 -0.115786,0.142507 -0.07125,0.05344 -0.169227,0.05344 h -0.587839 l 0.819412,-1.790239 -1.585385,-3.616104 q -0.2672,-0.04453 -0.4008,-0.08907 -0.1336,-0.02672 -0.1336,-0.16032 v -0.382987 h 2.021812 v 0.382987 q 0,0.1336 -0.1336,0.16032 -0.08907,0.02672 -0.498773,0.10688 l 1.006453,2.351358 q 0.04453,0.09797 0.07125,0.231573 0.03563,0.1336 0.04453,0.178133 0.06235,-0.21376 0.142507,-0.409706 L 57.0931,38.194734 q 0,0 -0.489866,-0.09797 -0.124694,-0.02672 -0.124694,-0.169226 v -0.37408 h 1.674452 l 0.32064,-0.0089 z" /></g></svg>
