<?xml version="1.0" encoding="utf-8"?>
<!-- Generator: Adobe Illustrator 16.0.0, SVG Export Plug-In . SVG Version: 6.00 Build 0)  -->
<!DOCTYPE svg PUBLIC "-//W3C//DTD SVG 1.1//EN" "http://www.w3.org/Graphics/SVG/1.1/DTD/svg11.dtd">
<svg version="1.1"
	 id="svg12" xmlns:dc="http://purl.org/dc/elements/1.1/" xmlns:cc="http://creativecommons.org/ns#" xmlns:rdf="http://www.w3.org/1999/02/22-rdf-syntax-ns#" xmlns:svg="http://www.w3.org/2000/svg" xmlns:sodipodi="http://sodipodi.sourceforge.net/DTD/sodipodi-0.dtd" xmlns:inkscape="http://www.inkscape.org/namespaces/inkscape" sodipodi:docname="WPPT logo_biale.svg" inkscape:version="1.0 (4035a4fb49, 2020-05-01)"
	 xmlns="http://www.w3.org/2000/svg" xmlns:xlink="http://www.w3.org/1999/xlink" x="0px" y="0px" width="235px" height="100px"
	 viewBox="0 0 235 100" enable-background="new 0 0 235 100" xml:space="preserve">
<sodipodi:namedview  pagecolor="#ffffff" bordercolor="#666666" borderopacity="1" objecttolerance="10" gridtolerance="10" guidetolerance="10" showgrid="false" inkscape:zoom="2.0875" inkscape:cy="0.28350128" inkscape:cx="51.259661" id="namedview14" inkscape:document-rotation="0" inkscape:pageopacity="0" inkscape:pageshadow="2" inkscape:window-width="1920" inkscape:window-height="1017" inkscape:window-y="-8" inkscape:window-maximized="1" inkscape:current-layer="svg12" inkscape:window-x="1432">
	</sodipodi:namedview>
<path id="path10" fill="#089C9C" d="M211.086,61.937c-3.785,10.056-12.537,17.675-23.266,19.867
	c-1.755,0.437-3.507,0.65-5.418,0.624c-0.312,0.008-0.625,0.015-0.936,0.015c-0.447,0-0.891-0.01-1.33-0.028l5.529-5.689
	l-9.768-11.063h10.694c4.811,0,5.638,2.873,6.122,4.502h0.926l-0.487-6.478h-25.177l13.076,14.838l-3.57,3.664
	c-11.799-1.481-21.578-9.468-25.635-20.255c4.701-1.206,8.241-5.312,8.6-10.298h9.56c0.425,5.958,5.393,10.659,11.462,10.659
	c6.063,0,11.031-4.701,11.457-10.659h9.563C202.842,56.625,206.382,60.73,211.086,61.937 M211.086,39.68
	c-4.701,1.207-8.244,5.312-8.598,10.296h-9.563c-0.406-5.685-4.946-10.222-10.629-10.631v-9.56
	c4.986-0.356,9.092-3.894,10.299-8.596C201.107,24.396,207.88,31.163,211.086,39.68 M180.633,39.348
	c-5.685,0.406-10.223,4.946-10.629,10.631h-9.559c-0.359-4.984-3.896-9.092-8.601-10.296c3.206-8.518,9.976-15.287,18.492-18.49
	c1.204,4.699,5.312,8.24,10.296,8.596V39.348z M225.438,50.81c0-6.345-5.146-11.49-11.49-11.49c-0.393,0-0.784,0.021-1.166,0.059
	c-3.365-9.208-10.678-16.519-19.887-19.886c0.041-0.385,0.057-0.771,0.057-1.168c0-6.345-5.143-11.488-11.484-11.488
	c-6.348,0-11.49,5.146-11.49,11.488c0,0.396,0.021,0.783,0.059,1.168c-9.205,3.365-16.521,10.676-19.884,19.886
	c-0.384-0.04-0.774-0.059-1.168-0.059c-6.345,0-11.49,5.146-11.49,11.49s5.146,11.49,11.49,11.49c0.394,0,0.784-0.02,1.168-0.06
	c4.063,11.131,13.896,19.484,25.872,21.453l-8.631,8.859h26.59l1.8-8.79h-0.972c-1.455,4.16-3.258,4.759-6.371,4.759h-14.242
	l4.387-4.51c0.876,0.076,1.764,0.119,2.659,0.126c2.485,0.026,4.673-0.183,7.009-0.69c11.367-2.352,20.615-10.496,24.529-21.207
	c0.382,0.043,0.773,0.06,1.166,0.06C220.291,62.3,225.438,57.154,225.438,50.81"/>
<g id="text135">
	<path id="path96" d="M50.691,8.268h-0.943c-0.218,0-0.347-0.109-0.385-0.328c0-0.039-0.019-0.186-0.058-0.443
		c-0.026-0.27-0.058-0.616-0.097-1.04H43.74v4.833h5.238v1.502H43.74v4.545l1.078,0.212c0.206,0.039,0.308,0.16,0.308,0.366v0.809
		h-4.66v-0.809c0-0.206,0.096-0.327,0.289-0.366l1.098-0.212V6.342c-0.617-0.116-0.982-0.193-1.098-0.231
		c-0.192-0.039-0.289-0.161-0.289-0.366V4.937h10.226V8.268z"/>
	<path id="path98" d="M60.147,17.492c0.09,0.013,0.16,0.058,0.211,0.135c0.052,0.064,0.077,0.142,0.077,0.231v0.828h-2.003
		c-0.115,0-0.25-0.026-0.404-0.077c-0.09-0.026-0.154-0.128-0.192-0.308l-0.193-0.924l-0.77,0.635
		c-0.218,0.18-0.475,0.334-0.771,0.462c-0.282,0.128-0.565,0.225-0.847,0.289c-0.257,0.064-0.604,0.097-1.04,0.097
		c-0.359,0-0.706-0.058-1.04-0.173c-0.398-0.142-0.687-0.295-0.866-0.462c-0.231-0.206-0.424-0.475-0.578-0.809
		c-0.141-0.295-0.211-0.681-0.211-1.156c0-0.411,0.103-0.783,0.308-1.117c0.231-0.373,0.578-0.693,1.04-0.963
		c0.514-0.295,1.13-0.526,1.849-0.693c0.745-0.167,1.682-0.25,2.812-0.25v-0.751c0-0.757-0.167-1.335-0.501-1.733
		c-0.333-0.398-0.815-0.597-1.444-0.597c-0.411,0-0.764,0.058-1.059,0.173c-0.333,0.128-0.578,0.244-0.732,0.347
		c-0.077,0.051-0.167,0.109-0.27,0.173c-0.09,0.051-0.186,0.109-0.289,0.173c-0.141,0.103-0.289,0.154-0.443,0.154
		c-0.142,0-0.244-0.025-0.308-0.077c-0.077-0.064-0.142-0.141-0.193-0.231l-0.308-0.539c0.501-0.488,1.079-0.873,1.733-1.156
		c0.59-0.256,1.284-0.385,2.08-0.385c0.578,0,1.066,0.09,1.464,0.27c0.437,0.192,0.79,0.437,1.059,0.731
		c0.282,0.295,0.5,0.681,0.655,1.156c0.141,0.424,0.212,0.924,0.212,1.502v4.872c0.616,0.128,0.937,0.199,0.963,0.212V17.492z
		 M57.489,14.334c-0.834,0-1.502,0.045-2.003,0.135c-0.488,0.09-0.937,0.225-1.348,0.405c-0.359,0.167-0.616,0.359-0.77,0.578
		c-0.154,0.231-0.231,0.475-0.231,0.731c0,0.206,0.045,0.424,0.135,0.655c0.077,0.193,0.192,0.347,0.347,0.462
		c0.154,0.116,0.321,0.199,0.5,0.25c0.218,0.064,0.43,0.096,0.635,0.096c0.257,0,0.527-0.032,0.809-0.096
		c0.257-0.064,0.494-0.148,0.712-0.25c0.193-0.09,0.404-0.231,0.636-0.424c0.128-0.103,0.321-0.282,0.578-0.539V14.334z"/>
	<path id="path100" d="M69.269,17.357c-0.809,1.001-2.016,1.502-3.621,1.502c-1.232,0-2.247-0.443-3.042-1.329
		c-0.834-0.937-1.252-2.169-1.252-3.697c0-1.489,0.392-2.69,1.175-3.601c0.822-0.938,1.964-1.406,3.428-1.406
		c0.732,0,1.695,0.231,2.889,0.693v2.542h-0.77c-0.18,0-0.289-0.09-0.328-0.27c-0.013-0.039-0.039-0.282-0.077-0.731l-0.058-0.636
		c-0.141-0.051-0.282-0.09-0.423-0.116c-0.128-0.025-0.218-0.045-0.27-0.058c-0.346-0.051-0.706-0.077-1.078-0.077
		c-0.334,0-0.687,0.083-1.059,0.25c-0.347,0.154-0.648,0.392-0.905,0.712c-0.488,0.642-0.732,1.541-0.732,2.696
		c0,1.155,0.257,2.067,0.771,2.734c0.5,0.642,1.188,0.963,2.061,0.963c0.809,0,1.521-0.27,2.138-0.809
		c0.103-0.103,0.231-0.154,0.385-0.154c0.142,0,0.244,0.051,0.308,0.154L69.269,17.357z"/>
	<path id="path102" d="M75.106,17.531c0.963,0,1.842-0.449,2.638-1.348v-5.777c-0.115-0.039-0.481-0.116-1.098-0.231
		c-0.192-0.039-0.289-0.16-0.289-0.366V8.98h3.101v8.358c0.616,0.116,0.982,0.192,1.098,0.231c0.192,0.039,0.289,0.154,0.289,0.347
		v0.828h-2.407c-0.231,0-0.385-0.122-0.462-0.366l-0.135-1.04c-0.924,1.04-2.003,1.56-3.235,1.56c-1.04,0-1.849-0.34-2.427-1.021
		c-0.565-0.68-0.847-1.573-0.847-2.677v-4.814c-0.59-0.116-0.95-0.192-1.079-0.231c-0.205-0.039-0.308-0.161-0.308-0.366V8.98h3.12
		v6.201c0,0.77,0.167,1.348,0.5,1.733c0.347,0.398,0.86,0.597,1.541,0.597V17.531z"/>
	<path id="path104" d="M86.15,17.531c0.205,0.039,0.308,0.161,0.308,0.366v0.828h-4.506v-0.828c0-0.206,0.103-0.328,0.308-0.366
		l1.078-0.212V5.938c-0.59-0.116-0.95-0.193-1.078-0.231c-0.206-0.039-0.308-0.154-0.308-0.347V4.532h3.12V17.3
		C85.662,17.416,86.021,17.492,86.15,17.531z"/>
	<path id="path106" d="M91.081,18.879c-0.745,0-1.335-0.218-1.772-0.655c-0.411-0.411-0.616-1.027-0.616-1.849v-5.97h-1.175
		c-0.115,0-0.205-0.026-0.27-0.077c-0.064-0.051-0.096-0.148-0.096-0.289V9.366l1.598-0.212l0.385-3.023
		c0-0.103,0.039-0.18,0.116-0.231c0.064-0.052,0.154-0.077,0.27-0.077h0.867v3.351h2.792v1.252h-2.792v5.854
		c0,0.423,0.096,0.731,0.289,0.924c0.193,0.192,0.456,0.289,0.79,0.289c0.142,0,0.302-0.025,0.481-0.077
		c0.116-0.039,0.231-0.09,0.347-0.154c0.039-0.026,0.077-0.051,0.116-0.077c0.039-0.025,0.077-0.051,0.116-0.077
		c0.103-0.052,0.167-0.077,0.192-0.077c0.09,0,0.167,0.051,0.231,0.154l0.501,0.809c-0.347,0.295-0.706,0.514-1.079,0.655
		C91.947,18.802,91.518,18.879,91.081,18.879z"/>
	<path id="path108" d="M104.99,9.789c0,0.193-0.096,0.309-0.289,0.347c-0.052,0-0.128,0.013-0.231,0.039
		c-0.09,0.026-0.186,0.051-0.289,0.077l-0.481,0.096l-4.834,11.247c-0.051,0.128-0.135,0.231-0.25,0.308
		c-0.103,0.077-0.225,0.116-0.366,0.116h-1.271l1.772-3.871l-3.428-7.818c-0.385-0.064-0.674-0.128-0.866-0.193
		c-0.193-0.038-0.289-0.154-0.289-0.347V8.961h4.372v0.828c0,0.193-0.096,0.309-0.289,0.347c-0.128,0.039-0.488,0.116-1.078,0.231
		l2.176,5.084c0.064,0.141,0.116,0.308,0.154,0.5c0.051,0.193,0.083,0.321,0.096,0.385c0.09-0.308,0.192-0.604,0.308-0.886
		l2.099-5.084c0,0-0.353-0.071-1.059-0.212c-0.18-0.039-0.27-0.161-0.27-0.366V8.98h3.62l0.693-0.019V9.789z"/>
	<path id="path110" d="M114.591,8.826c0.706,0,1.348,0.116,1.926,0.347c0.564,0.231,1.059,0.565,1.482,1.001
		c0.399,0.411,0.707,0.938,0.924,1.579c0.219,0.629,0.328,1.323,0.328,2.08s-0.109,1.451-0.328,2.08
		c-0.218,0.642-0.525,1.168-0.924,1.579c-0.423,0.437-0.918,0.771-1.482,1.001c-0.578,0.231-1.22,0.347-1.926,0.347
		s-1.348-0.116-1.926-0.347c-0.565-0.231-1.06-0.565-1.483-1.001c-0.385-0.398-0.7-0.924-0.944-1.579
		c-0.205-0.552-0.308-1.245-0.308-2.08s0.103-1.528,0.308-2.08c0.244-0.655,0.559-1.181,0.944-1.579
		c0.423-0.437,0.918-0.77,1.483-1.001C113.243,8.942,113.885,8.826,114.591,8.826z M114.591,17.531c0.988,0,1.708-0.321,2.157-0.963
		c0.475-0.667,0.712-1.573,0.712-2.715s-0.237-2.048-0.712-2.715c-0.449-0.642-1.168-0.963-2.157-0.963
		c-0.501,0-0.924,0.077-1.271,0.231c-0.334,0.154-0.629,0.398-0.886,0.731c-0.244,0.334-0.423,0.719-0.539,1.156
		c-0.128,0.513-0.192,1.04-0.192,1.579c0,0.514,0.064,1.027,0.192,1.541c0.116,0.437,0.295,0.822,0.539,1.155
		c0.218,0.295,0.514,0.526,0.886,0.693C113.731,17.441,114.155,17.531,114.591,17.531z"/>
	<path id="path112" d="M125.401,6.053c-1.31,0-1.964,0.738-1.964,2.215v0.905h2.811v1.233h-2.772v6.913
		c0.616,0.09,1.046,0.161,1.29,0.212c0.193,0.039,0.289,0.161,0.289,0.366v0.828h-4.775v-0.828c0-0.206,0.096-0.328,0.289-0.366
		l1.193-0.212v-6.875l-1.078-0.135c-0.309-0.077-0.463-0.225-0.463-0.443V9.173h1.541V8.229c0-1.13,0.302-1.997,0.904-2.6
		c0.592-0.604,1.406-0.905,2.446-0.905c0.386,0,0.79,0.064,1.214,0.192l-0.039,0.867c0,0.116-0.058,0.193-0.174,0.231
		c-0.076,0.026-0.225,0.039-0.442,0.039H125.401z"/>
	<path id="path114" d="M21.429,32.34h-0.944c-0.218,0-0.347-0.109-0.385-0.327c0-0.039-0.019-0.186-0.058-0.443
		c-0.026-0.27-0.058-0.616-0.096-1.04h-5.469v4.833h5.238v1.502h-5.238v4.544l1.078,0.212c0.206,0.039,0.309,0.161,0.309,0.366
		v0.809h-4.661v-0.809c0-0.206,0.096-0.328,0.289-0.366l1.098-0.212V30.414c-0.616-0.115-0.982-0.192-1.098-0.231
		c-0.193-0.039-0.289-0.161-0.289-0.366v-0.809h10.226V32.34z"/>
	<path id="path116" d="M26.661,41.603c0.963,0,1.842-0.45,2.638-1.348v-5.777c-0.116-0.039-0.481-0.115-1.098-0.231
		c-0.192-0.039-0.289-0.161-0.289-0.366v-0.828h3.101v8.357c0.616,0.116,0.982,0.193,1.098,0.231
		c0.193,0.039,0.289,0.154,0.289,0.347v0.828h-2.407c-0.231,0-0.385-0.122-0.462-0.366l-0.135-1.04
		c-0.924,1.04-2.002,1.56-3.235,1.56c-1.04,0-1.849-0.34-2.426-1.021c-0.565-0.681-0.847-1.573-0.847-2.677v-4.814
		c-0.591-0.116-0.95-0.193-1.079-0.231c-0.206-0.039-0.308-0.16-0.308-0.366v-0.809h3.12v6.201c0,0.771,0.167,1.348,0.501,1.733
		c0.347,0.398,0.86,0.597,1.541,0.597V41.603z"/>
	<path id="path118" d="M36.549,34.439c0.963-1.04,2.041-1.56,3.235-1.56c1.053,0,1.861,0.34,2.426,1.021
		c0.552,0.667,0.828,1.56,0.828,2.677v4.795c0.616,0.115,0.982,0.192,1.098,0.231c0.206,0.039,0.308,0.161,0.308,0.366v0.828h-3.12
		v-6.201c0-1.566-0.681-2.349-2.042-2.349c-0.963,0-1.849,0.456-2.657,1.367v5.777c0.051,0,0.423,0.077,1.117,0.231
		c0.193,0.039,0.289,0.161,0.289,0.366v0.809h-4.487v-0.809c0-0.206,0.09-0.328,0.27-0.366l1.117-0.212v-6.952
		c-0.642-0.116-1.014-0.193-1.117-0.231c-0.18-0.039-0.27-0.16-0.27-0.366v-0.809h2.388c0.231,0,0.385,0.115,0.462,0.347
		l0.154,1.059V34.439z"/>
	<path id="path120" d="M49.586,32.86c1.079,0,1.964,0.385,2.658,1.156V30.01l-1.29-0.231c-0.193-0.039-0.289-0.154-0.289-0.347
		v-0.847h3.274v12.787c0.642,0.115,1.014,0.192,1.117,0.231c0.18,0.039,0.27,0.154,0.27,0.347v0.847h-2.388
		c-0.231,0-0.385-0.122-0.462-0.366l-0.154-1.175c-0.912,1.104-2.003,1.656-3.274,1.656c-1.143,0-2.041-0.424-2.696-1.271
		c-0.668-0.886-1.001-2.119-1.001-3.698c0-1.476,0.378-2.683,1.136-3.62C47.27,33.348,48.303,32.86,49.586,32.86z M49.625,41.545
		c1.014,0,1.887-0.494,2.619-1.482v-4.699c-0.578-0.77-1.329-1.155-2.253-1.155c-0.938,0-1.65,0.321-2.138,0.963
		s-0.732,1.566-0.732,2.773c0,1.836,0.475,2.966,1.425,3.39c0.295,0.128,0.648,0.192,1.059,0.192L49.625,41.545z"/>
	<path id="path122" d="M64.886,41.564c0.09,0.013,0.161,0.058,0.212,0.135c0.051,0.064,0.077,0.141,0.077,0.231v0.828h-2.003
		c-0.115,0-0.25-0.025-0.404-0.077c-0.09-0.026-0.154-0.129-0.192-0.309l-0.193-0.924l-0.77,0.636
		c-0.218,0.18-0.475,0.333-0.771,0.462c-0.282,0.128-0.565,0.225-0.847,0.289c-0.257,0.064-0.604,0.096-1.04,0.096
		c-0.359,0-0.706-0.058-1.04-0.173c-0.398-0.141-0.687-0.295-0.867-0.462c-0.231-0.206-0.423-0.475-0.578-0.809
		c-0.141-0.295-0.212-0.68-0.212-1.155c0-0.411,0.103-0.783,0.309-1.117c0.231-0.372,0.578-0.693,1.04-0.963
		c0.514-0.295,1.13-0.526,1.849-0.693c0.745-0.167,1.682-0.25,2.812-0.25v-0.751c0-0.758-0.167-1.335-0.501-1.733
		c-0.333-0.398-0.815-0.597-1.444-0.597c-0.411,0-0.764,0.058-1.059,0.173c-0.334,0.128-0.578,0.244-0.732,0.347
		c-0.077,0.052-0.167,0.109-0.27,0.173c-0.09,0.051-0.186,0.109-0.289,0.173c-0.142,0.103-0.289,0.154-0.443,0.154
		c-0.141,0-0.244-0.026-0.308-0.077c-0.077-0.064-0.141-0.141-0.192-0.231l-0.308-0.54c0.5-0.488,1.079-0.873,1.733-1.155
		c0.59-0.257,1.284-0.385,2.08-0.385c0.578,0,1.065,0.09,1.464,0.27c0.436,0.193,0.79,0.437,1.059,0.732
		c0.282,0.295,0.5,0.681,0.655,1.155c0.141,0.424,0.211,0.925,0.211,1.502v4.872c0.617,0.128,0.938,0.199,0.963,0.212V41.564z
		 M62.229,38.406c-0.834,0-1.502,0.045-2.003,0.135c-0.488,0.09-0.937,0.225-1.348,0.404c-0.359,0.167-0.616,0.359-0.77,0.578
		c-0.154,0.231-0.231,0.475-0.231,0.732c0,0.206,0.045,0.424,0.135,0.655c0.077,0.192,0.192,0.347,0.346,0.462
		c0.154,0.115,0.321,0.199,0.501,0.25c0.218,0.064,0.43,0.097,0.635,0.097c0.257,0,0.526-0.032,0.809-0.097
		c0.257-0.064,0.494-0.147,0.712-0.25c0.192-0.09,0.404-0.231,0.636-0.424c0.128-0.103,0.321-0.282,0.578-0.539V38.406z"/>
	<path id="path124" d="M69.328,34.42c0.822-1.014,1.74-1.521,2.754-1.521c0.667,0,1.207,0.186,1.618,0.559
		c0.398,0.359,0.693,0.854,0.886,1.483c0.283-0.693,0.706-1.207,1.271-1.541c0.591-0.334,1.156-0.501,1.695-0.501
		c0.565,0,1.065,0.083,1.502,0.25c0.411,0.154,0.757,0.392,1.04,0.712c0.565,0.642,0.847,1.554,0.847,2.734v4.814
		c0.642,0.116,1.014,0.193,1.117,0.231c0.192,0.039,0.289,0.154,0.289,0.347v0.847h-3.101v-6.22c0-0.783-0.167-1.361-0.5-1.733
		c-0.359-0.398-0.847-0.597-1.463-0.597c-0.591,0-1.079,0.192-1.464,0.578c-0.423,0.424-0.635,1.001-0.635,1.733v4.814
		c0.051,0.013,0.16,0.039,0.327,0.077s0.424,0.09,0.771,0.154c0.192,0.039,0.289,0.154,0.289,0.347v0.828h-3.1v-6.221
		c0-1.541-0.617-2.311-1.849-2.311c-0.796,0-1.521,0.424-2.176,1.271v5.854l0.52,0.097l0.578,0.115
		c0.192,0.039,0.289,0.161,0.289,0.366v0.809h-4.487v-0.809c0-0.206,0.09-0.328,0.27-0.366l1.117-0.212v-6.952
		c-0.642-0.116-1.015-0.193-1.117-0.231c-0.18-0.039-0.27-0.16-0.27-0.366v-0.809h2.388c0.231,0,0.385,0.115,0.462,0.347
		l0.135,1.001V34.42z"/>
	<path id="path126" d="M87.789,32.898c0.565,0,1.098,0.096,1.598,0.289c0.514,0.192,0.938,0.468,1.271,0.828
		c0.385,0.411,0.668,0.866,0.848,1.367c0.205,0.578,0.308,1.194,0.308,1.849c0,0.295-0.026,0.475-0.077,0.539
		c-0.064,0.09-0.18,0.135-0.347,0.135h-6.471c0,0.616,0.077,1.156,0.231,1.618c0.128,0.398,0.347,0.771,0.655,1.117
		c0.282,0.321,0.603,0.552,0.963,0.693c0.385,0.154,0.796,0.231,1.232,0.231c0.462,0,0.834-0.045,1.117-0.135
		c0.27-0.09,0.54-0.199,0.809-0.328c0.282-0.141,0.475-0.244,0.578-0.308c0.167-0.103,0.295-0.154,0.385-0.154
		c0.141,0,0.25,0.058,0.327,0.173l0.481,0.635c-0.18,0.231-0.437,0.45-0.77,0.655c-0.385,0.244-0.7,0.404-0.944,0.481
		c-0.385,0.128-0.732,0.218-1.04,0.27c-0.385,0.064-0.738,0.097-1.059,0.097c-0.667,0-1.29-0.116-1.868-0.347
		c-0.552-0.218-1.046-0.559-1.482-1.021c-0.411-0.423-0.732-0.969-0.963-1.637c-0.231-0.655-0.347-1.399-0.347-2.234
		c0-0.667,0.109-1.297,0.327-1.887c0.218-0.604,0.52-1.117,0.905-1.541c0.398-0.437,0.879-0.777,1.444-1.021
		C86.467,33.021,87.096,32.898,87.789,32.898L87.789,32.898z M87.828,34.15c-0.834,0-1.483,0.237-1.945,0.712
		c-0.475,0.5-0.77,1.168-0.886,2.003h5.296c0-0.398-0.058-0.758-0.173-1.079c-0.141-0.398-0.295-0.687-0.462-0.867
		c-0.218-0.231-0.481-0.417-0.79-0.558c-0.295-0.128-0.648-0.193-1.06-0.193L87.828,34.15z"/>
	<path id="path128" d="M95.977,34.439c0.963-1.04,2.042-1.56,3.235-1.56c1.053,0,1.861,0.34,2.426,1.021
		c0.552,0.667,0.828,1.56,0.828,2.677v4.795c0.616,0.115,0.982,0.192,1.098,0.231c0.206,0.039,0.308,0.161,0.308,0.366v0.828h-3.12
		v-6.201c0-1.566-0.68-2.349-2.041-2.349c-0.963,0-1.849,0.456-2.658,1.367v5.777c0.051,0,0.424,0.077,1.117,0.231
		c0.193,0.039,0.289,0.161,0.289,0.366v0.809h-4.487v-0.809c0-0.206,0.09-0.328,0.27-0.366l1.117-0.212v-6.952
		c-0.642-0.116-1.014-0.193-1.117-0.231c-0.18-0.039-0.27-0.16-0.27-0.366v-0.809h2.388c0.231,0,0.385,0.115,0.462,0.347
		l0.154,1.059V34.439z"/>
	<path id="path130" d="M108.533,42.951c-0.745,0-1.335-0.218-1.772-0.655c-0.411-0.411-0.616-1.027-0.616-1.849v-5.97h-1.175
		c-0.115,0-0.205-0.025-0.27-0.077c-0.064-0.051-0.096-0.147-0.096-0.289v-0.674l1.599-0.211l0.385-3.024
		c0-0.103,0.039-0.18,0.116-0.231c0.064-0.051,0.154-0.077,0.27-0.077h0.867v3.351h2.792v1.252h-2.792v5.854
		c0,0.424,0.096,0.732,0.289,0.924c0.192,0.193,0.456,0.289,0.79,0.289c0.141,0,0.302-0.026,0.481-0.077
		c0.115-0.039,0.231-0.09,0.347-0.154c0.038-0.026,0.077-0.051,0.115-0.077s0.077-0.051,0.116-0.077
		c0.103-0.051,0.167-0.077,0.192-0.077c0.09,0,0.167,0.051,0.231,0.154l0.501,0.809c-0.347,0.295-0.706,0.514-1.079,0.655
		C109.4,42.874,108.97,42.951,108.533,42.951L108.533,42.951z"/>
	<path id="path132" d="M120.439,41.564c0.09,0.013,0.16,0.058,0.212,0.135c0.052,0.064,0.077,0.141,0.077,0.231v0.828h-2.002
		c-0.116,0-0.251-0.025-0.405-0.077c-0.09-0.026-0.153-0.129-0.192-0.309l-0.193-0.924l-0.77,0.636
		c-0.218,0.18-0.475,0.333-0.771,0.462c-0.282,0.128-0.565,0.225-0.847,0.289c-0.257,0.064-0.604,0.096-1.04,0.096
		c-0.359,0-0.706-0.058-1.04-0.173c-0.398-0.141-0.687-0.295-0.866-0.462c-0.231-0.206-0.424-0.475-0.578-0.809
		c-0.141-0.295-0.211-0.68-0.211-1.155c0-0.411,0.103-0.783,0.308-1.117c0.231-0.372,0.578-0.693,1.04-0.963
		c0.514-0.295,1.13-0.526,1.849-0.693c0.745-0.167,1.682-0.25,2.812-0.25v-0.751c0-0.758-0.167-1.335-0.501-1.733
		c-0.333-0.398-0.815-0.597-1.444-0.597c-0.411,0-0.764,0.058-1.059,0.173c-0.333,0.128-0.578,0.244-0.731,0.347
		c-0.077,0.052-0.167,0.109-0.27,0.173c-0.09,0.051-0.186,0.109-0.289,0.173c-0.141,0.103-0.289,0.154-0.443,0.154
		c-0.142,0-0.244-0.026-0.308-0.077c-0.077-0.064-0.142-0.141-0.193-0.231l-0.308-0.54c0.501-0.488,1.079-0.873,1.733-1.155
		c0.59-0.257,1.284-0.385,2.08-0.385c0.578,0,1.066,0.09,1.464,0.27c0.437,0.193,0.79,0.437,1.059,0.732
		c0.282,0.295,0.501,0.681,0.655,1.155c0.141,0.424,0.211,0.925,0.211,1.502v4.872c0.617,0.128,0.938,0.199,0.963,0.212V41.564z
		 M117.782,38.406c-0.834,0-1.502,0.045-2.003,0.135c-0.488,0.09-0.937,0.225-1.348,0.404c-0.359,0.167-0.616,0.359-0.77,0.578
		c-0.154,0.231-0.231,0.475-0.231,0.732c0,0.206,0.045,0.424,0.135,0.655c0.077,0.192,0.192,0.347,0.347,0.462
		c0.154,0.115,0.321,0.199,0.5,0.25c0.218,0.064,0.43,0.097,0.635,0.097c0.257,0,0.527-0.032,0.809-0.097
		c0.257-0.064,0.494-0.147,0.712-0.25c0.193-0.09,0.404-0.231,0.636-0.424c0.128-0.103,0.321-0.282,0.578-0.539V38.406z"/>
	<path id="path134" d="M126.057,41.603c0.205,0.039,0.309,0.161,0.309,0.366v0.828h-4.507v-0.828c0-0.205,0.103-0.327,0.308-0.366
		l1.079-0.212V30.01c-0.591-0.115-0.95-0.192-1.079-0.231c-0.205-0.039-0.308-0.154-0.308-0.347v-0.828h3.12v12.768
		C125.568,41.487,125.928,41.564,126.057,41.603L126.057,41.603z"/>
	<path id="path136" d="M33.307,53.35c1.9,0.617,2.85,1.952,2.85,4.006c0,1.322-0.437,2.362-1.31,3.12
		c-0.938,0.821-2.208,1.232-3.813,1.232H29.07v3.755c0.103,0.039,0.475,0.115,1.117,0.231c0.18,0.038,0.27,0.16,0.27,0.366v0.809
		h-4.622v-0.809c0-0.206,0.096-0.328,0.289-0.366l1.098-0.212V54.486c-0.616-0.115-0.982-0.192-1.098-0.23
		c-0.193-0.039-0.289-0.161-0.289-0.367V53.08h5.2c0.86,0,1.618,0.097,2.272,0.289V53.35z M34.289,57.317
		c0-0.86-0.27-1.541-0.809-2.042c-0.526-0.487-1.342-0.731-2.446-0.731H29.07v5.662h1.964c1.04,0,1.842-0.257,2.407-0.771
		c0.578-0.526,0.866-1.227,0.866-2.1L34.289,57.317z"/>
	<path id="path138" d="M40.254,59.108c0.719-1.451,1.708-2.177,2.966-2.177c0.5,0,0.944,0.115,1.329,0.348l-0.211,1.289
		c-0.039,0.168-0.122,0.251-0.25,0.251c-0.09,0-0.244-0.032-0.462-0.097s-0.481-0.096-0.79-0.096c-1.13,0-1.964,0.68-2.503,2.041
		v4.814l1.098,0.212c0.193,0.038,0.289,0.16,0.289,0.366v0.809h-4.487v-0.809c0-0.206,0.096-0.328,0.289-0.366l1.098-0.212V58.53
		c-0.616-0.115-0.982-0.192-1.098-0.231c-0.193-0.038-0.289-0.16-0.289-0.365v-0.809H39.6c0.18,0,0.302,0.031,0.366,0.096
		c0.064,0.064,0.115,0.187,0.154,0.366l0.116,1.521H40.254z"/>
	<path id="path140" d="M49.634,56.971c0.706,0,1.348,0.115,1.926,0.347c0.565,0.231,1.059,0.564,1.483,1.001
		c0.398,0.411,0.706,0.938,0.924,1.579c0.218,0.63,0.327,1.323,0.327,2.08s-0.109,1.45-0.327,2.08
		c-0.218,0.642-0.526,1.168-0.924,1.579c-0.424,0.437-0.918,0.77-1.483,1.001c-0.578,0.231-1.22,0.347-1.926,0.347
		s-1.348-0.115-1.926-0.347c-0.565-0.231-1.059-0.564-1.483-1.001c-0.385-0.398-0.7-0.925-0.944-1.579
		c-0.205-0.552-0.308-1.245-0.308-2.08s0.103-1.528,0.308-2.08c0.244-0.654,0.559-1.181,0.944-1.579
		c0.424-0.437,0.918-0.77,1.483-1.001C48.286,57.086,48.928,56.971,49.634,56.971z M49.634,65.675c0.988,0,1.708-0.321,2.157-0.963
		c0.475-0.667,0.712-1.572,0.712-2.716c0-1.143-0.237-2.047-0.712-2.715c-0.449-0.642-1.168-0.963-2.157-0.963
		c-0.501,0-0.924,0.077-1.271,0.231c-0.334,0.153-0.629,0.397-0.886,0.731c-0.244,0.334-0.424,0.719-0.54,1.156
		c-0.128,0.513-0.192,1.039-0.192,1.578c0,0.514,0.064,1.027,0.192,1.541c0.116,0.437,0.295,0.822,0.54,1.155
		c0.218,0.296,0.513,0.526,0.886,0.693C48.774,65.585,49.198,65.675,49.634,65.675z"/>
	<path id="path142" d="M64.881,61.996c0,0.81-0.116,1.521-0.347,2.139c-0.244,0.642-0.552,1.168-0.924,1.578
		c-0.373,0.412-0.822,0.732-1.348,0.963c-0.514,0.231-1.078,0.348-1.695,0.348c-1.091,0-2.529-0.18-4.313-0.539V54.082l-0.424-0.059
		l-0.809-0.135c-0.09-0.012-0.161-0.051-0.212-0.115c-0.051-0.076-0.077-0.16-0.077-0.25v-0.828h3.255v5.835
		c0.411-0.475,0.873-0.854,1.386-1.136c0.514-0.283,1.104-0.424,1.772-0.424c0.578,0,1.091,0.103,1.541,0.309
		c0.449,0.205,0.834,0.525,1.155,0.963c0.321,0.449,0.565,0.963,0.732,1.54c0.18,0.642,0.27,1.36,0.27,2.157h0.039V61.996z
		 M62.358,64.674c0.244-0.321,0.43-0.707,0.559-1.156c0.128-0.475,0.193-0.963,0.193-1.463V61.9c0-0.668-0.052-1.207-0.154-1.617
		c-0.116-0.438-0.282-0.809-0.5-1.117c-0.231-0.309-0.488-0.526-0.771-0.654c-0.295-0.129-0.648-0.193-1.059-0.193
		c-0.591,0-1.085,0.129-1.483,0.385c-0.424,0.27-0.809,0.637-1.155,1.098v5.566c0.18,0.051,0.449,0.115,0.809,0.192
		c0.373,0.063,0.745,0.103,1.117,0.115h0.5c0.424-0.025,0.771-0.103,1.04-0.231c0.333-0.153,0.629-0.397,0.886-0.731L62.358,64.674z
		"/>
	<path id="path144" d="M70.089,65.675c0.205,0.038,0.308,0.161,0.308,0.366v0.828h-4.506v-0.828c0-0.205,0.103-0.328,0.308-0.366
		l1.078-0.212V54.082c-0.59-0.115-0.95-0.193-1.078-0.231c-0.206-0.038-0.308-0.153-0.308-0.347v-0.828h3.12v12.768
		C69.601,65.56,69.961,65.637,70.089,65.675z"/>
	<path id="path146" d="M75.791,56.971c0.565,0,1.098,0.096,1.599,0.289c0.513,0.192,0.937,0.469,1.271,0.828
		c0.385,0.41,0.667,0.866,0.847,1.367c0.206,0.578,0.308,1.193,0.308,1.849c0,0.295-0.026,0.475-0.077,0.539
		c-0.064,0.09-0.18,0.135-0.347,0.135h-6.47c0,0.616,0.077,1.155,0.231,1.618c0.128,0.397,0.347,0.77,0.655,1.116
		c0.282,0.321,0.604,0.552,0.963,0.693c0.385,0.154,0.796,0.231,1.232,0.231c0.462,0,0.834-0.045,1.117-0.135
		c0.27-0.09,0.54-0.199,0.809-0.328c0.282-0.141,0.475-0.244,0.578-0.308c0.167-0.103,0.295-0.154,0.385-0.154
		c0.141,0,0.25,0.058,0.327,0.173l0.481,0.637c-0.18,0.23-0.437,0.449-0.77,0.654c-0.385,0.244-0.7,0.404-0.944,0.481
		c-0.385,0.128-0.731,0.218-1.04,0.27c-0.385,0.064-0.738,0.097-1.059,0.097c-0.667,0-1.29-0.116-1.868-0.348
		c-0.552-0.218-1.046-0.558-1.483-1.02c-0.411-0.424-0.732-0.97-0.963-1.637c-0.231-0.655-0.347-1.4-0.347-2.234
		c0-0.668,0.109-1.297,0.327-1.888c0.218-0.603,0.52-1.116,0.905-1.54c0.398-0.438,0.879-0.777,1.444-1.021
		C74.468,57.093,75.097,56.971,75.791,56.971z M75.829,58.223c-0.834,0-1.483,0.237-1.945,0.712
		c-0.475,0.501-0.771,1.169-0.886,2.003h5.296c0-0.398-0.058-0.758-0.173-1.078c-0.141-0.398-0.295-0.688-0.462-0.867
		c-0.218-0.23-0.481-0.417-0.79-0.559c-0.295-0.128-0.648-0.191-1.059-0.191L75.829,58.223z"/>
	<path id="path148" d="M83.959,58.492c0.822-1.015,1.74-1.521,2.754-1.521c0.667,0,1.207,0.186,1.618,0.559
		c0.398,0.359,0.693,0.854,0.886,1.482c0.282-0.693,0.706-1.207,1.271-1.541c0.591-0.333,1.155-0.5,1.695-0.5
		c0.565,0,1.065,0.084,1.502,0.25c0.411,0.154,0.757,0.392,1.04,0.713c0.565,0.642,0.847,1.553,0.847,2.734v4.814
		c0.642,0.115,1.014,0.192,1.117,0.23c0.192,0.039,0.289,0.154,0.289,0.348v0.847h-3.101v-6.22c0-0.783-0.167-1.361-0.5-1.733
		c-0.359-0.397-0.847-0.597-1.463-0.597c-0.591,0-1.079,0.192-1.464,0.577c-0.424,0.424-0.635,1.001-0.635,1.733v4.814
		c0.051,0.013,0.16,0.039,0.327,0.077s0.424,0.09,0.771,0.153c0.192,0.039,0.289,0.154,0.289,0.348v0.828h-3.1v-6.221
		c0-1.541-0.617-2.311-1.849-2.311c-0.796,0-1.521,0.424-2.176,1.271v5.854l0.52,0.096l0.578,0.116
		c0.192,0.038,0.289,0.16,0.289,0.366v0.809h-4.487v-0.809c0-0.206,0.09-0.328,0.27-0.366l1.117-0.212V58.53
		c-0.642-0.115-1.014-0.192-1.117-0.231c-0.18-0.038-0.27-0.16-0.27-0.365v-0.809h2.388c0.231,0,0.385,0.115,0.462,0.346
		l0.135,1.002V58.492z"/>
	<path id="path150" d="M101.919,56.971c0.668,0,1.515,0.174,2.542,0.52v2.504h-0.751c-0.18,0-0.289-0.09-0.327-0.27l-0.116-1.271
		c-0.604-0.141-1.104-0.211-1.502-0.211h-0.02c-0.526,0-0.969,0.141-1.329,0.423c-0.347,0.27-0.52,0.565-0.52,0.886
		c0,0.334,0.077,0.578,0.231,0.732c0.257,0.295,0.629,0.52,1.117,0.674l0.578,0.174c0.103,0.025,0.308,0.09,0.616,0.191l0.924,0.348
		c0.257,0.09,0.526,0.256,0.809,0.5c0.526,0.411,0.79,0.977,0.79,1.695c0,0.937-0.314,1.682-0.944,2.233
		c-0.68,0.604-1.541,0.905-2.581,0.905c-1.065,0-2.118-0.174-3.158-0.52v-2.543h0.693c0.154,0,0.25,0.078,0.289,0.231l0.115,1.232
		c0.514,0.257,1.175,0.386,1.984,0.386c0.616,0,1.117-0.161,1.502-0.482c0.334-0.295,0.5-0.622,0.5-0.981
		c0-0.372-0.077-0.642-0.231-0.81c-0.18-0.205-0.372-0.359-0.578-0.461c-0.283-0.143-0.552-0.244-0.809-0.309
		c-0.95-0.309-1.547-0.514-1.791-0.616c-0.309-0.142-0.597-0.321-0.867-0.54c-0.54-0.449-0.809-1.053-0.809-1.81
		c0-0.771,0.308-1.425,0.924-1.964C99.846,57.253,100.751,56.971,101.919,56.971L101.919,56.971z"/>
	<path id="path152" d="M114.591,56.971c0.706,0,1.348,0.115,1.926,0.347c0.564,0.231,1.059,0.564,1.482,1.001
		c0.399,0.411,0.707,0.938,0.924,1.579c0.219,0.63,0.328,1.323,0.328,2.08s-0.109,1.45-0.328,2.08
		c-0.218,0.642-0.525,1.168-0.924,1.579c-0.423,0.437-0.918,0.77-1.482,1.001c-0.578,0.231-1.22,0.347-1.926,0.347
		s-1.348-0.115-1.926-0.347c-0.565-0.231-1.06-0.564-1.483-1.001c-0.385-0.398-0.7-0.925-0.944-1.579
		c-0.205-0.552-0.308-1.245-0.308-2.08s0.103-1.528,0.308-2.08c0.244-0.654,0.559-1.181,0.944-1.579
		c0.423-0.437,0.918-0.77,1.483-1.001C113.243,57.086,113.885,56.971,114.591,56.971z M114.591,65.675
		c0.988,0,1.708-0.321,2.157-0.963c0.475-0.667,0.712-1.572,0.712-2.716c0-1.143-0.237-2.047-0.712-2.715
		c-0.449-0.642-1.168-0.963-2.157-0.963c-0.501,0-0.924,0.077-1.271,0.231c-0.334,0.153-0.629,0.397-0.886,0.731
		c-0.244,0.334-0.423,0.719-0.539,1.156c-0.128,0.513-0.192,1.039-0.192,1.578c0,0.514,0.064,1.027,0.192,1.541
		c0.116,0.437,0.295,0.822,0.539,1.155c0.218,0.296,0.514,0.526,0.886,0.693C113.731,65.585,114.155,65.675,114.591,65.675z"/>
	<path id="path154" d="M125.401,54.197c-1.31,0-1.964,0.738-1.964,2.215v0.905h2.811v1.232h-2.772v6.913
		c0.616,0.09,1.046,0.16,1.29,0.212c0.193,0.038,0.289,0.161,0.289,0.366v0.828h-4.775v-0.828c0-0.205,0.096-0.328,0.288-0.366
		l1.194-0.212v-6.875l-1.078-0.135c-0.309-0.076-0.463-0.225-0.463-0.443v-0.692h1.541v-0.944c0-1.129,0.302-1.996,0.904-2.6
		c0.592-0.604,1.406-0.904,2.446-0.904c0.386,0,0.79,0.063,1.214,0.191l-0.039,0.867c0,0.115-0.058,0.193-0.174,0.231
		c-0.076,0.025-0.225,0.038-0.442,0.038H125.401z"/>
	<path id="path156" d="M38.131,80.195h-0.943c-0.206,0-0.328-0.064-0.366-0.192c-0.064-0.219-0.128-0.642-0.192-1.271h-3.235v10.823
		l0.231,0.038c0.591,0.116,0.912,0.18,0.963,0.192c0.128,0.039,0.193,0.154,0.193,0.348v0.809H30.12v-0.809
		c0-0.104,0.026-0.187,0.077-0.251c0.064-0.077,0.147-0.122,0.25-0.135l1.059-0.212V78.713h-3.254
		c-0.077,0.719-0.135,1.148-0.173,1.29c-0.039,0.128-0.167,0.192-0.385,0.192H26.77v-3.043h11.362V80.195z"/>
	<path id="path158" d="M41.375,81.043c0.565,0,1.098,0.096,1.599,0.289c0.513,0.191,0.937,0.468,1.271,0.828
		c0.385,0.41,0.667,0.866,0.847,1.367c0.206,0.577,0.308,1.193,0.308,1.848c0,0.296-0.026,0.476-0.077,0.54
		c-0.064,0.09-0.18,0.135-0.347,0.135h-6.47c0,0.616,0.077,1.155,0.231,1.617c0.128,0.398,0.347,0.771,0.655,1.117
		c0.282,0.321,0.604,0.552,0.963,0.693c0.385,0.153,0.796,0.231,1.232,0.231c0.462,0,0.834-0.045,1.117-0.135
		c0.27-0.09,0.54-0.199,0.809-0.328c0.282-0.141,0.475-0.244,0.578-0.308c0.167-0.103,0.295-0.154,0.385-0.154
		c0.141,0,0.25,0.058,0.327,0.173l0.481,0.636c-0.18,0.231-0.437,0.45-0.77,0.655c-0.385,0.244-0.7,0.404-0.944,0.48
		c-0.385,0.129-0.731,0.219-1.04,0.271c-0.385,0.063-0.738,0.097-1.06,0.097c-0.667,0-1.29-0.116-1.868-0.348
		c-0.552-0.218-1.046-0.559-1.483-1.021c-0.411-0.423-0.732-0.97-0.963-1.637c-0.231-0.655-0.347-1.399-0.347-2.233
		c0-0.668,0.109-1.297,0.327-1.888c0.218-0.604,0.52-1.117,0.905-1.54c0.398-0.438,0.879-0.777,1.444-1.021
		S40.682,81.043,41.375,81.043L41.375,81.043z M41.414,82.295c-0.834,0-1.483,0.236-1.945,0.712
		c-0.475,0.501-0.771,1.169-0.886,2.003h5.296c0-0.398-0.058-0.758-0.173-1.078c-0.141-0.398-0.295-0.688-0.462-0.867
		c-0.218-0.23-0.481-0.417-0.79-0.559c-0.295-0.128-0.648-0.192-1.059-0.192L41.414,82.295z"/>
	<path id="path160" d="M54.712,89.574c-0.809,1.001-2.016,1.502-3.62,1.502c-1.233,0-2.247-0.443-3.043-1.329
		c-0.834-0.937-1.251-2.17-1.251-3.697c0-1.489,0.391-2.69,1.174-3.602c0.822-0.937,1.964-1.405,3.428-1.405
		c0.731,0,1.694,0.23,2.889,0.693v2.541h-0.771c-0.18,0-0.289-0.09-0.328-0.27c-0.013-0.038-0.038-0.282-0.077-0.731l-0.058-0.636
		c-0.141-0.051-0.282-0.09-0.423-0.115c-0.128-0.025-0.218-0.045-0.27-0.058c-0.347-0.052-0.707-0.077-1.079-0.077
		c-0.334,0-0.687,0.084-1.059,0.25c-0.347,0.154-0.648,0.393-0.905,0.713c-0.488,0.643-0.732,1.541-0.732,2.696
		s0.257,2.067,0.771,2.734c0.5,0.642,1.188,0.963,2.061,0.963c0.809,0,1.521-0.27,2.138-0.809c0.103-0.103,0.231-0.154,0.385-0.154
		c0.141,0,0.244,0.052,0.308,0.154L54.712,89.574z"/>
	<path id="path162" d="M58.894,82.506c0.937-0.976,1.977-1.463,3.12-1.463c1.04,0,1.849,0.334,2.426,1.001
		c0.565,0.667,0.848,1.566,0.848,2.696v4.795c0.616,0.115,0.982,0.192,1.098,0.23c0.192,0.039,0.289,0.161,0.289,0.367v0.809h-3.101
		V84.74c0-1.554-0.687-2.33-2.061-2.33c-0.937,0-1.81,0.455-2.619,1.367v5.777l0.231,0.038l0.847,0.173
		c0.206,0.039,0.308,0.161,0.308,0.367v0.809h-4.506v-0.809c0-0.206,0.103-0.328,0.308-0.367l1.079-0.211V78.174
		c-0.732-0.116-1.155-0.193-1.271-0.231c-0.206-0.039-0.308-0.161-0.308-0.366v-0.809h3.313V82.506z"/>
	<path id="path164" d="M70.814,82.583c0.963-1.04,2.041-1.56,3.235-1.56c1.053,0,1.861,0.34,2.426,1.021
		c0.552,0.667,0.828,1.56,0.828,2.677v4.795c0.616,0.115,0.982,0.193,1.098,0.231c0.206,0.038,0.308,0.161,0.308,0.366v0.828h-3.12
		V84.74c0-1.566-0.681-2.35-2.042-2.35c-0.963,0-1.849,0.455-2.658,1.367v5.777c0.052,0,0.424,0.077,1.117,0.23
		c0.192,0.039,0.289,0.161,0.289,0.367v0.809H67.81v-0.809c0-0.206,0.09-0.328,0.27-0.367l1.117-0.211v-6.952
		c-0.642-0.116-1.014-0.192-1.117-0.231c-0.18-0.038-0.27-0.16-0.27-0.365v-0.809h2.388c0.231,0,0.385,0.115,0.462,0.346l0.154,1.06
		V82.583z"/>
	<path id="path166" d="M84.275,81.043c0.706,0,1.348,0.115,1.926,0.346c0.565,0.231,1.059,0.565,1.483,1.002
		c0.398,0.41,0.706,0.938,0.924,1.579c0.218,0.629,0.327,1.322,0.327,2.08c0,0.757-0.109,1.45-0.327,2.079
		c-0.218,0.643-0.526,1.169-0.924,1.58c-0.424,0.436-0.918,0.77-1.483,1.001c-0.578,0.231-1.22,0.347-1.926,0.347
		s-1.348-0.115-1.926-0.347c-0.565-0.231-1.059-0.565-1.483-1.001c-0.385-0.398-0.7-0.925-0.943-1.58
		c-0.206-0.552-0.308-1.244-0.308-2.079s0.103-1.528,0.308-2.08c0.244-0.655,0.558-1.181,0.943-1.579
		c0.424-0.437,0.918-0.771,1.483-1.002C82.927,81.158,83.569,81.043,84.275,81.043z M84.275,89.747c0.989,0,1.708-0.321,2.157-0.963
		c0.475-0.667,0.713-1.573,0.713-2.716s-0.238-2.047-0.713-2.715c-0.449-0.643-1.168-0.963-2.157-0.963
		c-0.5,0-0.924,0.077-1.271,0.23c-0.334,0.154-0.629,0.398-0.886,0.732c-0.244,0.334-0.424,0.719-0.54,1.155
		c-0.128,0.514-0.192,1.04-0.192,1.579c0,0.514,0.064,1.027,0.192,1.541c0.116,0.437,0.295,0.821,0.54,1.155
		c0.218,0.296,0.514,0.526,0.886,0.693C83.415,89.657,83.839,89.747,84.275,89.747z"/>
	<path id="path168" d="M94.161,89.747c0.206,0.038,0.308,0.161,0.308,0.366v0.828h-4.506v-0.828c0-0.205,0.103-0.328,0.308-0.366
		l1.079-0.212V78.154c-0.591-0.115-0.95-0.193-1.079-0.231c-0.205-0.038-0.308-0.154-0.308-0.347v-0.828h3.12v12.768
		C93.673,89.631,94.033,89.709,94.161,89.747z"/>
	<path id="path170" d="M99.998,81.043c0.706,0,1.348,0.115,1.926,0.346c0.565,0.231,1.059,0.565,1.483,1.002
		c0.398,0.41,0.706,0.938,0.924,1.579c0.218,0.629,0.327,1.322,0.327,2.08c0,0.757-0.109,1.45-0.327,2.079
		c-0.218,0.643-0.526,1.169-0.924,1.58c-0.424,0.436-0.918,0.77-1.483,1.001c-0.578,0.231-1.22,0.347-1.926,0.347
		s-1.348-0.115-1.926-0.347c-0.565-0.231-1.059-0.565-1.483-1.001c-0.385-0.398-0.7-0.925-0.944-1.58
		c-0.205-0.552-0.308-1.244-0.308-2.079s0.103-1.528,0.308-2.08c0.244-0.655,0.559-1.181,0.944-1.579
		c0.424-0.437,0.918-0.771,1.483-1.002C98.649,81.158,99.292,81.043,99.998,81.043z M99.998,89.747c0.988,0,1.708-0.321,2.157-0.963
		c0.475-0.667,0.712-1.573,0.712-2.716s-0.237-2.047-0.712-2.715c-0.449-0.643-1.168-0.963-2.157-0.963
		c-0.501,0-0.924,0.077-1.271,0.23c-0.334,0.154-0.629,0.398-0.886,0.732c-0.244,0.334-0.424,0.719-0.54,1.155
		c-0.128,0.514-0.192,1.04-0.192,1.579c0,0.514,0.064,1.027,0.192,1.541c0.116,0.437,0.295,0.821,0.54,1.155
		c0.218,0.296,0.513,0.526,0.886,0.693C99.137,89.657,99.561,89.747,99.998,89.747z"/>
	<path id="path172" d="M109.968,81.063c0.437,0,0.828,0.045,1.175,0.135c0.372,0.102,0.706,0.243,1.001,0.423h2.657v0.636
		c0,0.205-0.135,0.34-0.404,0.404l-1.098,0.154c0.206,0.372,0.308,0.834,0.308,1.387c0,0.5-0.09,0.931-0.27,1.29
		c-0.206,0.411-0.456,0.738-0.751,0.981c-0.359,0.296-0.745,0.514-1.156,0.655c-0.411,0.142-0.898,0.212-1.463,0.212
		c-0.462,0-0.892-0.058-1.29-0.174c-0.18,0.104-0.334,0.244-0.462,0.424c-0.103,0.142-0.154,0.283-0.154,0.424
		c0,0.244,0.09,0.418,0.27,0.52c0.218,0.129,0.468,0.213,0.751,0.251c0.411,0.052,0.764,0.077,1.059,0.077
		c0.257,0,0.655,0.025,1.194,0.077c0.103,0.013,0.276,0.032,0.52,0.058c0.257,0.013,0.481,0.039,0.674,0.077
		c0.411,0.077,0.764,0.192,1.059,0.347c0.282,0.141,0.533,0.365,0.751,0.674c0.18,0.257,0.27,0.616,0.27,1.078
		c0,0.449-0.103,0.86-0.308,1.232c-0.192,0.359-0.5,0.707-0.924,1.04c-0.373,0.296-0.847,0.54-1.425,0.731
		c-0.539,0.18-1.181,0.27-1.926,0.27c-0.77,0-1.399-0.07-1.887-0.211c-0.539-0.154-0.982-0.347-1.329-0.578
		c-0.347-0.23-0.61-0.507-0.79-0.828c-0.18-0.32-0.27-0.642-0.27-0.963c0-0.475,0.154-0.886,0.462-1.232s0.732-0.616,1.271-0.809
		c-0.27-0.115-0.488-0.289-0.655-0.52c-0.167-0.231-0.25-0.521-0.25-0.867c0-0.077,0.025-0.219,0.077-0.424
		c0.039-0.154,0.116-0.309,0.231-0.462c0.103-0.142,0.237-0.282,0.404-0.424c0.051-0.052,0.231-0.167,0.539-0.347
		c-0.488-0.27-0.867-0.629-1.136-1.078s-0.404-0.97-0.404-1.561c0-0.5,0.09-0.93,0.27-1.289c0.193-0.398,0.449-0.727,0.771-0.982
		c0.321-0.27,0.719-0.482,1.194-0.636c0.424-0.142,0.918-0.212,1.483-0.212L109.968,81.063z M109.987,86.242
		c0.334,0,0.642-0.051,0.925-0.154c0.244-0.09,0.468-0.225,0.674-0.404c0.18-0.167,0.314-0.379,0.404-0.635
		c0.09-0.271,0.135-0.533,0.135-0.79c0-0.604-0.186-1.079-0.558-1.425c-0.36-0.348-0.886-0.521-1.58-0.521
		c-0.68,0-1.207,0.173-1.579,0.521c-0.359,0.346-0.539,0.821-0.539,1.425c0,0.282,0.051,0.546,0.154,0.79
		c0.115,0.27,0.25,0.475,0.404,0.615c0.206,0.18,0.43,0.314,0.674,0.404c0.257,0.09,0.552,0.135,0.886,0.135V86.242z M113.03,91.519
		c0-0.243-0.064-0.437-0.192-0.577c-0.128-0.154-0.315-0.27-0.559-0.348c-0.244-0.076-0.507-0.135-0.79-0.173
		c-0.411-0.052-0.732-0.083-0.963-0.097l-1.021-0.038c-0.064,0-0.391-0.038-0.982-0.115c-0.372,0.18-0.674,0.392-0.905,0.636
		c-0.231,0.256-0.346,0.559-0.347,0.904c0,0.219,0.058,0.424,0.173,0.617c0.116,0.18,0.289,0.34,0.52,0.48
		c0.244,0.142,0.533,0.251,0.867,0.328c0.347,0.076,0.757,0.115,1.232,0.115c0.398,0,0.809-0.045,1.232-0.135
		c0.334-0.064,0.642-0.186,0.924-0.366c0.257-0.153,0.45-0.333,0.578-0.539c0.141-0.218,0.211-0.449,0.211-0.693H113.03z"/>
	<path id="path174" d="M126.43,82.006c0,0.192-0.097,0.308-0.289,0.346c-0.051,0-0.129,0.014-0.23,0.039
		c-0.09,0.025-0.188,0.051-0.289,0.077l-0.482,0.097l-4.833,11.246c-0.052,0.129-0.135,0.23-0.251,0.309
		c-0.102,0.076-0.225,0.115-0.365,0.115h-1.271l1.771-3.871l-3.427-7.818c-0.385-0.064-0.674-0.129-0.867-0.193
		c-0.192-0.038-0.289-0.153-0.289-0.346v-0.828h4.372v0.828c0,0.192-0.097,0.308-0.289,0.346c-0.129,0.039-0.488,0.116-1.078,0.231
		l2.176,5.084c0.064,0.142,0.115,0.309,0.154,0.501c0.051,0.192,0.083,0.32,0.096,0.385c0.09-0.308,0.193-0.604,0.309-0.886
		l2.099-5.084c0,0-0.353-0.07-1.06-0.212c-0.18-0.038-0.27-0.16-0.27-0.365v-0.809h3.621l0.693-0.02V82.006z"/>
</g>
</svg>
