<?xml version="1.0" encoding="utf-8"?>
<!-- Generator: Adobe Illustrator 16.0.0, SVG Export Plug-In . SVG Version: 6.00 Build 0)  -->
<!DOCTYPE svg PUBLIC "-//W3C//DTD SVG 1.1//EN" "http://www.w3.org/Graphics/SVG/1.1/DTD/svg11.dtd">
<svg version="1.1" xmlns="http://www.w3.org/2000/svg" xmlns:xlink="http://www.w3.org/1999/xlink" x="0px" y="0px" width="708px"
	 height="714px" viewBox="0 0 708 714" enable-background="new 0 0 708 714" xml:space="preserve">
<g id="Warstwa_2">
	<circle cx="356" cy="358" r="338"/>
	<path fill="#FFFFFF" d="M563.916,320.393c0,0,6.768,84.17-0.074,124.639s0.262-129.904,0.262-129.904s5.816,118.661-3.236,144.373
		s-46.565-11-46.565-11"/>
</g>
<g id="Warstwa_4">
	<path fill="#FFFFFF" d="M115.384,435.47c0,97.501,76.743,87.436,76.743,87.436l3.145-6.919l-10.693-21.388l105.678-16.983
		l18.242-48.437l-0.629-145.937l128.324,72.915l20.129-8.124l59.759-5.032l33.968-32.081l32.081-91.839
		c0,0-41.517,27.678-37.113-23.904c-75.484-20.129-367.987-5.032-367.987-5.032s-60.388,3.774-61.646,82.404"/>
	<path fill="#FFFFFF" d="M598.484,424.775c0,0,13.21,101.865-93.097,98.425c-106.308-3.439-278.035-46.214-278.035-46.214
		l81.146-47.808l127.695-73.021l91.839-86.125l70.976-4.403"/>
	<path fill="#FFFFFF" d="M519.8,190.572c0,0,74.07,0.831,79.208,78.831c5.139,78.001-75.379,75.485-75.379,75.485l-49.693-90.582"/>
	<path fill="#FFFFFF" d="M186.104,523.2c0,0,257.831,9.102,329.444,0S503.5,444.276,503.5,444.276l-261.05,15.726l-67.307,2.516
		l-19.5-5.661"/>
	<path fill="#FFFFFF" d="M124.19,280.097l80.517-37.742l-70.453-8.178l-18.871,27.678c0,0-5.916,157.768,0,186.195
		c5.916,28.428,89.324-60.388,89.324-60.388l144.049-147.823l64.424,0.629l83.4,31.452l60.388,3.146"/>
</g>
</svg>
